<?xml version="1.0" encoding="UTF-8"?>
<svg version="1.1" xmlns="http://www.w3.org/2000/svg" width="280" height="280">
<path d="M0 0 C22.12722382 17.91676751 36.92042332 42.98750686 40.62109375 71.3984375 C40.92879195 75.90260822 40.99101655 80.38480448 40.99609375 84.8984375 C41.02058594 86.04441406 41.04507813 87.19039063 41.0703125 88.37109375 C41.10828884 99.49816128 38.42093863 109.20229566 30.62109375 117.3984375 C28.10628821 119.68994107 25.50332667 121.59437319 22.62109375 123.3984375 C21.96625 123.81351563 21.31140625 124.22859375 20.63671875 124.65625 C13.15543275 128.67814435 4.03284688 128.78247781 -4.09765625 126.703125 C-12.409522 123.31575505 -18.47642598 117.42265724 -22.37890625 109.3984375 C-25.10460176 101.72211647 -25.88462343 94.30806371 -26.06640625 86.2109375 C-26.10056641 85.16357422 -26.13472656 84.11621094 -26.16992188 83.03710938 C-26.2513046 80.49099281 -26.32079972 77.94517306 -26.37890625 75.3984375 C-28.65138574 79.02240784 -30.92165121 82.64776024 -33.19140625 86.2734375 C-34.2122229 87.90236938 -34.2122229 87.90236938 -35.25366211 89.56420898 C-38.40820152 94.60709949 -41.54987808 99.65502893 -44.61328125 104.75390625 C-45.09563232 105.55521973 -45.5779834 106.3565332 -46.07495117 107.18212891 C-46.9557836 108.65107474 -47.8313624 110.12318996 -48.70043945 111.59912109 C-52.79117592 118.41454645 -57.53458845 125.70394622 -65.37890625 128.3984375 C-70.0592254 129.19212799 -73.38366073 128.86789293 -77.69140625 126.8359375 C-83.02401308 121.99938712 -85.21320617 116.58003673 -85.58422852 109.45605469 C-85.62584541 107.86925434 -85.66259077 106.2823212 -85.6953125 104.6953125 C-85.7160936 103.85752258 -85.73687469 103.01973267 -85.75828552 102.15655518 C-85.82353175 99.48726394 -85.88254983 96.81787652 -85.94140625 94.1484375 C-85.98461519 92.33592766 -86.02823024 90.52342745 -86.07226562 88.7109375 C-86.17918754 84.27353541 -86.28052491 79.83603682 -86.37890625 75.3984375 C-86.82991699 76.15797729 -86.82991699 76.15797729 -87.29003906 76.93286133 C-94.25706055 88.64856886 -101.38981803 100.23982242 -108.69726562 111.74560547 C-111.95947895 116.89183224 -115.20268831 122.04990137 -118.44140625 127.2109375 C-119.08505127 128.23155273 -119.72869629 129.25216797 -120.3918457 130.30371094 C-123.28147399 134.91327367 -126.08965744 139.45936223 -128.37890625 144.3984375 C-113.48902932 160.67341926 -92.50519559 170.44826911 -70.50390625 171.6015625 C-48.38383454 172.02078646 -27.7016561 165.67207324 -10.66796875 151.23046875 C-7.10278973 148.37710875 -4.45546005 146.53300673 0.12109375 145.9609375 C4.19019735 146.46957545 5.75454444 147.53188819 8.62109375 150.3984375 C10.43890673 154.03406346 10.55467399 157.46143135 9.62109375 161.3984375 C-1.05025846 176.52457589 -22.03943151 185.5881316 -39.37890625 190.3984375 C-39.99620605 190.58317627 -40.61350586 190.76791504 -41.24951172 190.95825195 C-48.93838416 193.00355425 -56.85482001 192.84118492 -64.75390625 192.8359375 C-65.51212677 192.836008 -66.27034729 192.83607849 -67.05154419 192.83615112 C-79.10555028 192.79303234 -90.09304893 191.97440447 -101.37890625 187.3984375 C-102.178125 187.07665527 -102.97734375 186.75487305 -103.80078125 186.42333984 C-114.37543077 182.03297196 -123.63721628 176.84121366 -132.37890625 169.3984375 C-133.23613281 168.69074219 -134.09335938 167.98304688 -134.9765625 167.25390625 C-150.18057932 154.21182073 -161.20689116 137.41414474 -167.37890625 118.3984375 C-167.58918457 117.76228516 -167.79946289 117.12613281 -168.01611328 116.47070312 C-176.65191507 88.98382806 -172.18539775 58.7046782 -159.37890625 33.3984375 C-154.77509757 25.02583566 -148.62736026 17.58702588 -142.37890625 10.3984375 C-141.85167969 9.78613281 -141.32445312 9.17382812 -140.78125 8.54296875 C-130.02715266 -3.03625115 -115.9091236 -10.84019706 -101.37890625 -16.6015625 C-100.66379883 -16.88821777 -99.94869141 -17.17487305 -99.21191406 -17.47021484 C-66.71454553 -29.80173832 -26.73762218 -20.96376801 0 0 Z M-93.37890625 2.3984375 C-94.9721875 2.94177734 -94.9721875 2.94177734 -96.59765625 3.49609375 C-118.13592973 11.68396833 -134.65261235 28.93297786 -144.10522461 49.63818359 C-148.21168816 59.25605182 -150.90451712 69.94125103 -151.37890625 80.3984375 C-151.41886719 81.06230469 -151.45882812 81.72617188 -151.5 82.41015625 C-151.96880901 97.32931354 -147.93951047 110.75436233 -142.37890625 124.3984375 C-137.81162446 120.29366526 -134.99228369 115.75716998 -131.94140625 110.4609375 C-127.63868457 103.13986865 -123.21891237 95.91793276 -118.62890625 88.7734375 C-114.76506112 82.75543239 -110.94117785 76.71756539 -107.21484375 70.61328125 C-106.6878186 69.75092865 -106.6878186 69.75092865 -106.15014648 68.87115479 C-104.44676663 66.08185558 -102.74926622 63.28932984 -101.05957031 60.49169922 C-97.92483741 55.34617353 -94.70580646 50.27197492 -91.27734375 45.31640625 C-90.67325684 44.44137451 -90.06916992 43.56634277 -89.44677734 42.66479492 C-87.00182397 39.98516067 -84.71588604 38.77416811 -81.37890625 37.3984375 C-78.9296875 37.2890625 -78.9296875 37.2890625 -76.69140625 37.6484375 C-75.94503906 37.75671875 -75.19867188 37.865 -74.4296875 37.9765625 C-72.37890625 38.3984375 -72.37890625 38.3984375 -69.37890625 39.3984375 C-68.31640625 41.5234375 -68.31640625 41.5234375 -67.37890625 44.3984375 C-67.03811035 45.39560791 -66.69731445 46.39277832 -66.34619141 47.42016602 C-64.99419741 52.20650595 -65.02507322 56.98179269 -64.96484375 61.92578125 C-64.9454776 62.91469864 -64.92611145 63.90361603 -64.90615845 64.92250061 C-64.84670003 68.06022701 -64.80011269 71.19799078 -64.75390625 74.3359375 C-64.71569541 76.47202061 -64.67664189 78.60808883 -64.63671875 80.74414062 C-64.54102653 85.96210669 -64.4558817 91.18016355 -64.37890625 96.3984375 C-61.95992837 93.43897077 -59.70218903 90.4892358 -57.6796875 87.24609375 C-57.19725586 86.4763623 -56.71482422 85.70663086 -56.21777344 84.91357422 C-55.71407227 84.1042041 -55.21037109 83.29483398 -54.69140625 82.4609375 C-53.61997833 80.75639307 -52.54836221 79.05196692 -51.4765625 77.34765625 C-49.60078457 74.35549439 -47.73408343 71.358021 -45.875 68.35546875 C-33.78458555 48.97160463 -33.78458555 48.97160463 -25.37890625 46.3984375 C-20.69886418 45.73832307 -17.37537977 45.92840282 -13.06640625 47.9609375 C-8.60229733 52.00978048 -6.25919524 56.38798748 -5.37890625 62.3984375 C-5.27687069 65.02659959 -5.21843948 67.63342484 -5.203125 70.26171875 C-5.17992388 71.80405006 -5.15580642 73.34636781 -5.13085938 74.88867188 C-5.09582996 77.29786251 -5.06643073 79.70655298 -5.05297852 82.1159668 C-5.21638677 94.39667275 -5.21638677 94.39667275 -0.37890625 105.3984375 C3.37565942 107.90148128 5.16855309 107.85123824 9.62109375 107.3984375 C15.20421317 104.39214243 17.87645818 101.71072689 19.80859375 95.7109375 C24.01172693 76.39065306 16.89983264 53.62100473 6.79394531 37.18457031 C-6.37563184 17.12865307 -26.72051774 3.87087212 -50.03125 -1.17578125 C-64.65043436 -3.03516409 -79.42355804 -2.39478458 -93.37890625 2.3984375 Z " fill="#FFFFFF" transform="translate(205.37890625,54.6015625)"/>
</svg>
