<?xml version="1.0" standalone="no"?>
<!DOCTYPE svg PUBLIC "-//W3C//DTD SVG 20010904//EN"
 "http://www.w3.org/TR/2001/REC-SVG-20010904/DTD/svg10.dtd">
<svg version="1.0" xmlns="http://www.w3.org/2000/svg"
 width="736.000000pt" height="741.000000pt" viewBox="0 0 736.000000 741.000000"
 preserveAspectRatio="xMidYMid meet">

<g transform="translate(0.000000,741.000000) scale(0.100000,-0.100000)"
fill="#000000" stroke="none">
<path d="M3460 7307 c-3 -3 -43 -7 -90 -10 -106 -6 -328 -36 -355 -47 -11 -5
-36 -11 -55 -13 -19 -3 -73 -14 -120 -25 -47 -11 -88 -18 -92 -16 -4 2 -9 0
-13 -6 -3 -5 -17 -10 -31 -10 -14 0 -22 -4 -19 -10 4 -6 -8 -10 -29 -10 -20 0
-36 -4 -36 -10 0 -5 -8 -10 -17 -10 -23 0 -79 -18 -138 -46 -27 -13 -67 -26
-87 -30 -21 -3 -38 -10 -38 -14 0 -10 -97 -50 -121 -50 -11 0 -19 -4 -19 -10
0 -5 -5 -10 -10 -10 -19 0 -157 -69 -170 -85 -7 -8 -23 -15 -36 -15 -13 0 -24
-4 -24 -10 0 -5 -10 -10 -22 -11 -13 0 -17 -3 -10 -6 20 -8 14 -26 -8 -20 -11
3 -20 1 -20 -4 0 -5 -9 -9 -19 -9 -10 0 -21 -7 -25 -15 -3 -8 -14 -15 -25 -15
-11 0 -26 -6 -33 -12 -7 -7 -26 -20 -43 -28 -16 -8 -39 -23 -49 -32 -11 -10
-25 -18 -31 -18 -6 0 -24 -13 -40 -30 -16 -16 -33 -30 -37 -30 -20 0 -73 -66
-70 -87 3 -17 -2 -23 -15 -23 -14 0 -15 2 -5 9 11 6 10 10 -3 15 -11 4 -26 -4
-45 -24 -15 -16 -35 -30 -44 -30 -10 0 -13 -6 -10 -15 5 -11 2 -13 -10 -9 -9
3 -16 1 -16 -4 0 -6 -8 -13 -18 -16 -11 -4 -25 -18 -32 -31 -7 -14 -20 -25
-27 -25 -15 0 -213 -195 -213 -210 0 -6 -4 -10 -10 -10 -12 0 -80 -65 -80 -78
0 -5 -12 -20 -27 -34 -45 -41 -70 -73 -77 -101 -3 -15 -13 -27 -21 -27 -8 0
-15 -4 -15 -10 0 -5 -7 -10 -15 -10 -8 0 -18 -12 -21 -27 -4 -15 -24 -43 -46
-63 -21 -20 -38 -44 -38 -53 0 -10 -4 -17 -10 -17 -5 0 -10 -6 -10 -13 0 -8
-11 -24 -25 -37 -26 -24 -55 -74 -55 -94 0 -6 -9 -17 -20 -24 -11 -7 -20 -21
-20 -32 0 -11 -4 -20 -10 -20 -5 0 -10 -7 -10 -15 0 -8 -8 -22 -19 -32 -10
-10 -24 -35 -32 -55 -7 -21 -17 -38 -21 -38 -4 0 -8 -9 -8 -20 0 -11 -4 -20
-10 -20 -5 0 -7 -7 -4 -15 4 -8 2 -15 -3 -15 -12 0 -37 -50 -34 -67 1 -7 -3
-13 -9 -13 -5 0 -10 -6 -10 -14 0 -8 -6 -21 -13 -28 -8 -7 -20 -30 -26 -51 -7
-20 -17 -37 -22 -37 -5 0 -8 -3 -8 -7 3 -20 -2 -34 -11 -28 -6 3 -10 -5 -10
-19 0 -14 -5 -36 -11 -50 -9 -19 -9 -29 0 -39 9 -12 7 -16 -9 -20 -11 -3 -20
-12 -20 -21 0 -9 -4 -16 -8 -16 -4 0 -9 -12 -10 -27 -1 -15 -7 -32 -12 -37 -6
-6 -10 -20 -10 -33 0 -13 -4 -23 -10 -23 -5 0 -10 -11 -10 -24 0 -14 -4 -27
-8 -30 -5 -3 -9 -22 -10 -42 -1 -21 -5 -40 -9 -43 -5 -3 -8 -22 -8 -43 0 -20
-4 -36 -10 -35 -5 1 -11 -14 -13 -33 -2 -19 -8 -39 -13 -44 -5 -6 -9 -27 -9
-47 0 -21 -4 -41 -10 -44 -5 -3 -10 -31 -10 -61 0 -30 -3 -54 -7 -54 -5 0 -9
-25 -10 -55 0 -31 -6 -62 -12 -69 -6 -7 -12 -65 -13 -134 -1 -66 -6 -118 -10
-116 -5 3 -7 -114 -6 -261 1 -146 5 -268 10 -271 4 -3 8 -36 8 -74 0 -44 5
-74 13 -82 9 -8 12 -29 9 -64 -3 -31 0 -54 7 -58 6 -4 11 -27 11 -51 0 -28 5
-45 14 -48 11 -4 13 -16 9 -42 -6 -36 2 -69 39 -174 10 -29 19 -69 20 -87 1
-19 5 -34 10 -34 4 0 8 -11 8 -25 0 -13 9 -40 20 -60 11 -20 20 -44 20 -55 0
-10 5 -22 10 -25 6 -3 10 -17 10 -31 0 -17 4 -23 12 -18 8 5 9 2 5 -9 -3 -9
-2 -19 4 -23 6 -3 8 -12 5 -20 -3 -8 -1 -14 4 -14 6 0 10 -6 10 -14 0 -7 7
-26 14 -42 8 -15 13 -31 10 -36 -3 -4 0 -8 5 -8 6 0 11 -8 11 -19 0 -10 7 -24
15 -31 8 -6 17 -22 20 -33 9 -32 69 -151 77 -155 5 -2 8 -9 8 -16 0 -18 24
-66 33 -66 4 0 7 -9 7 -20 0 -11 4 -20 8 -20 5 0 15 -12 23 -27 8 -16 16 -30
19 -33 3 -3 11 -16 18 -30 18 -38 35 -63 54 -81 10 -9 18 -24 18 -33 0 -9 9
-21 20 -28 11 -7 20 -19 20 -26 0 -16 24 -42 40 -42 6 0 13 -13 16 -30 4 -16
9 -28 13 -26 4 3 13 -10 21 -27 7 -18 28 -46 44 -64 17 -17 47 -50 66 -73 52
-63 446 -460 456 -460 5 0 28 -18 52 -40 23 -22 46 -40 51 -40 5 0 27 -17 48
-38 21 -20 50 -43 66 -49 15 -7 27 -17 27 -23 0 -5 6 -10 13 -10 7 0 23 -9 35
-20 12 -11 26 -20 32 -20 6 0 13 -7 16 -15 4 -8 10 -12 15 -9 5 3 9 0 9 -5 0
-6 9 -11 20 -11 11 0 20 -5 20 -10 0 -6 12 -15 27 -21 15 -5 33 -19 40 -29 8
-11 23 -20 34 -20 10 0 19 -4 19 -10 0 -5 9 -10 20 -10 11 0 20 -4 20 -10 0
-5 9 -10 20 -10 11 0 20 -4 20 -10 0 -5 7 -10 15 -10 8 0 15 -4 15 -10 0 -5
11 -10 25 -10 14 0 25 -4 25 -10 0 -5 9 -10 20 -10 11 0 20 -4 20 -8 0 -5 18
-15 40 -22 21 -7 37 -17 34 -21 -3 -5 4 -9 16 -9 12 0 28 -7 37 -15 8 -9 28
-19 44 -22 16 -3 29 -9 29 -14 0 -5 6 -6 14 -3 8 3 17 1 21 -5 3 -6 13 -11 21
-11 8 0 37 -11 65 -25 29 -13 67 -26 85 -27 19 -1 34 -5 34 -8 0 -6 41 -24 95
-40 22 -7 48 -16 57 -21 10 -5 28 -9 41 -9 13 0 27 -3 31 -7 4 -4 26 -9 48
-10 23 -2 44 -7 47 -12 6 -7 48 -16 146 -27 22 -3 49 -9 60 -14 11 -4 70 -14
130 -21 61 -6 115 -15 120 -19 13 -10 713 -13 750 -4 20 5 24 9 13 16 -8 5 -3
6 15 2 16 -4 54 -1 85 5 31 6 80 12 107 14 28 1 55 6 61 9 6 4 30 9 52 10 23
2 42 6 42 11 0 4 12 7 28 7 15 0 37 3 50 6 21 6 21 7 5 21 -17 13 -16 13 4 4
24 -12 73 -11 73 1 0 4 18 8 39 8 22 0 43 5 46 10 3 6 17 10 30 10 13 0 27 5
30 10 3 6 15 10 26 10 10 0 27 4 37 9 38 19 68 30 92 33 14 2 24 9 23 15 -1 6
6 9 17 6 11 -3 20 0 20 6 0 6 14 11 31 11 17 0 28 4 24 10 -3 6 3 10 13 10 23
0 74 25 66 32 -7 8 45 20 56 13 6 -4 10 -1 10 4 0 6 9 11 20 11 11 0 20 5 20
10 0 6 8 10 17 10 9 0 27 10 39 21 13 12 31 23 41 24 29 4 63 17 63 24 0 4 18
15 40 25 22 10 38 22 35 27 -4 5 1 6 9 3 9 -3 16 -1 16 5 0 6 11 11 24 11 15
0 26 7 29 20 3 11 14 20 25 20 10 0 27 9 36 19 10 11 29 22 44 26 21 5 23 8
11 16 -10 7 -5 8 16 3 17 -4 27 -4 23 0 -9 10 30 48 42 41 6 -4 10 -1 10 4 0
6 8 11 18 11 14 0 15 2 2 10 -12 8 -11 10 8 10 13 0 33 9 45 21 12 12 38 32
57 44 44 29 90 73 90 85 0 6 7 10 16 10 8 0 103 87 210 192 107 106 199 194
204 196 6 2 10 8 10 13 0 5 14 22 30 37 16 16 30 33 30 37 0 5 24 34 53 66 78
87 107 125 107 143 0 10 4 15 9 12 5 -3 19 15 32 39 13 25 27 45 31 45 5 0 8
7 8 15 0 9 12 28 28 43 31 32 52 66 52 85 0 7 9 19 20 27 11 8 20 22 20 32 0
10 5 18 11 18 6 0 9 6 6 14 -3 8 1 17 9 20 8 3 14 15 14 26 0 11 3 20 8 20 4
0 13 15 21 33 8 17 21 40 29 49 8 10 12 24 8 33 -3 9 -2 13 4 10 6 -3 10 3 10
14 0 12 5 21 10 21 6 0 10 11 10 25 0 14 5 25 10 25 6 0 10 7 10 15 0 8 3 15
8 15 10 0 32 50 32 74 0 12 9 32 20 46 11 14 20 37 20 52 0 15 5 30 10 33 6 3
10 15 10 26 0 11 5 17 10 14 6 -3 10 3 10 15 0 28 23 100 32 100 5 0 8 14 8
30 0 17 4 30 9 30 4 0 11 25 14 56 3 30 13 67 22 80 9 14 15 33 13 42 -1 9 1
23 6 30 4 7 10 28 13 45 2 18 9 36 14 42 5 5 9 35 9 67 0 32 3 58 8 58 4 0 9
26 10 57 2 31 8 65 13 75 5 9 9 41 8 70 -2 29 3 100 10 158 13 107 11 451 -3
560 -4 30 -9 84 -11 120 -5 82 -15 142 -26 155 -4 6 -9 34 -10 63 -2 29 -6 55
-11 58 -4 3 -8 23 -8 45 0 21 -4 39 -10 39 -5 0 -10 20 -10 44 0 25 -4 48 -10
51 -5 3 -10 19 -10 35 0 16 -5 32 -11 36 -8 4 -9 -1 -5 -17 6 -21 6 -22 -5 -6
-6 11 -8 32 -5 49 4 22 -1 39 -19 66 -14 20 -25 50 -25 67 -1 16 -7 48 -15 70
-8 22 -15 50 -15 62 0 12 -3 23 -7 25 -16 6 -53 86 -53 112 0 14 -4 26 -10 26
-5 0 -10 9 -10 20 0 11 -4 20 -10 20 -5 0 -10 7 -10 15 0 15 -30 89 -53 130
-6 11 -17 32 -24 46 -7 15 -20 32 -28 39 -8 7 -15 21 -15 31 0 11 -4 19 -10
19 -5 0 -10 9 -10 20 0 11 -4 20 -10 20 -5 0 -10 9 -10 20 0 11 -6 20 -14 20
-7 0 -19 14 -26 30 -7 17 -16 30 -21 30 -5 0 -9 8 -9 18 0 11 -9 29 -20 42
-11 12 -22 31 -25 41 -4 11 -10 19 -14 19 -5 0 -14 14 -21 30 -7 17 -16 30
-20 30 -4 0 -10 9 -13 21 -3 12 -10 18 -16 14 -6 -3 -11 1 -11 9 0 9 0 18 0
21 0 2 -15 20 -33 39 -63 68 -77 85 -77 95 0 17 -49 60 -54 48 -2 -7 -5 -3 -5
9 -1 11 -10 29 -21 39 -11 10 -20 23 -20 29 0 6 -16 25 -36 41 -19 17 -41 36
-47 43 -56 63 -100 102 -108 97 -5 -4 -9 1 -9 9 0 8 -24 38 -52 66 -74 72 -83
80 -96 80 -5 0 -13 6 -15 13 -4 9 -8 8 -16 -3 -6 -8 -11 -10 -12 -5 -4 51 -20
71 -60 80 -16 4 -32 11 -35 17 -5 7 -2 8 7 3 8 -4 5 1 -6 12 -11 11 -26 18
-34 15 -10 -4 -13 -1 -8 11 6 16 -8 23 -35 18 -5 0 -8 3 -8 7 0 12 -35 52 -46
52 -5 0 -23 14 -41 30 -18 17 -39 30 -47 30 -9 0 -21 9 -28 20 -7 11 -19 20
-26 20 -15 0 -52 20 -72 40 -16 16 -40 31 -105 64 -22 12 -42 23 -45 26 -5 5
-75 43 -117 64 -13 6 -23 14 -23 19 0 4 -11 7 -24 7 -14 0 -28 5 -31 10 -3 6
-14 10 -23 10 -9 0 -28 9 -42 20 -14 11 -34 20 -46 20 -30 0 -85 21 -79 29 2
4 -18 14 -45 21 -28 8 -50 17 -50 22 0 4 -13 8 -30 8 -16 0 -30 5 -30 11 0 5
-4 8 -8 5 -5 -3 -21 2 -36 10 -16 7 -39 14 -52 14 -13 0 -24 5 -24 10 0 6 -11
10 -24 10 -14 0 -28 5 -31 10 -3 6 -19 10 -36 10 -16 0 -29 5 -29 10 0 6 -10
10 -22 9 -43 -4 -69 1 -63 11 4 6 -13 10 -44 10 -31 0 -51 4 -51 11 0 8 -14
10 -41 6 -29 -4 -46 -1 -56 9 -8 8 -34 14 -59 14 -24 0 -44 4 -44 8 0 5 -19 8
-42 7 -24 0 -72 5 -108 13 -64 13 -619 30 -630 19z m-163 -33 c-3 -3 -12 -4
-19 -1 -8 3 -5 6 6 6 11 1 17 -2 13 -5z m477 -856 c10 17 46 15 46 -3 0 -8 21
-49 47 -91 39 -63 48 -73 55 -57 6 14 7 12 4 -7 -3 -16 4 -39 22 -66 15 -23
50 -79 77 -124 28 -45 71 -114 97 -154 25 -40 59 -95 75 -123 15 -28 53 -90
83 -139 30 -49 58 -97 62 -107 4 -10 12 -16 18 -12 6 3 7 -1 4 -9 -4 -11 0
-16 10 -16 9 0 16 -6 14 -14 -4 -21 75 -146 89 -141 7 2 10 -2 7 -10 -3 -7 0
-24 7 -36 12 -23 12 -23 21 -4 7 17 8 17 4 -4 -3 -16 7 -42 30 -78 19 -29 34
-56 34 -59 0 -15 48 -73 55 -66 5 4 5 2 1 -5 -8 -15 22 -65 35 -57 5 3 6 -1 4
-9 -3 -7 8 -32 25 -55 16 -23 30 -45 30 -50 0 -4 16 -31 35 -59 19 -29 35 -55
35 -58 0 -4 11 -21 25 -39 14 -18 25 -36 25 -40 0 -4 11 -22 24 -39 13 -18 36
-54 51 -82 15 -27 33 -57 41 -66 8 -8 14 -21 14 -28 0 -7 4 -10 9 -6 5 3 13 0
17 -6 4 -8 3 -9 -4 -5 -7 4 -12 4 -12 1 0 -8 111 -179 120 -185 4 -3 9 -14 11
-25 3 -11 11 -20 18 -20 8 0 16 -7 18 -15 4 -13 3 -13 -6 0 -7 9 -11 10 -11 3
0 -6 4 -15 10 -18 5 -3 17 -21 26 -40 9 -21 21 -32 28 -28 6 3 8 3 4 -2 -10
-11 21 -67 32 -60 6 4 10 -3 10 -15 0 -11 15 -44 34 -73 18 -28 53 -86 77
-127 24 -41 52 -83 62 -92 9 -10 17 -20 17 -23 0 -3 0 -9 0 -15 0 -5 7 -10 16
-10 8 0 13 -4 9 -10 -3 -5 4 -26 15 -47 11 -22 16 -39 10 -41 -6 -2 -8 -8 -4
-13 3 -5 -3 -9 -13 -9 -10 0 -29 -9 -43 -20 -14 -11 -33 -20 -42 -20 -10 0
-18 -4 -18 -8 0 -5 -18 -17 -40 -27 -22 -10 -47 -26 -56 -36 -10 -11 -24 -19
-31 -19 -8 0 -13 -6 -11 -12 3 -7 25 -14 51 -16 39 -3 47 -6 47 -23 0 -12 -7
-19 -20 -19 -13 0 -20 -7 -20 -20 0 -16 -7 -20 -30 -20 -19 0 -30 -5 -30 -14
0 -8 -4 -18 -10 -21 -6 -4 -10 10 -10 34 0 35 3 41 21 41 14 0 19 5 17 18 -2
9 -11 16 -21 16 -9 -1 -17 2 -17 7 0 9 -32 0 -40 -11 -3 -4 -24 -17 -47 -29
-24 -12 -43 -26 -43 -31 0 -6 -9 -10 -20 -10 -11 0 -20 -4 -20 -10 0 -5 -7
-10 -16 -10 -9 0 -12 -5 -8 -12 5 -7 3 -8 -5 -3 -8 4 -25 -1 -42 -14 -15 -11
-33 -21 -39 -21 -5 0 -9 -3 -9 -7 3 -21 -3 -31 -21 -36 -11 -3 -18 -1 -15 3 3
4 -3 6 -13 3 -18 -4 -27 -33 -10 -33 5 0 4 -9 -2 -20 -9 -17 -8 -20 10 -20 11
0 20 -4 20 -10 0 -5 9 -10 20 -10 13 0 20 -7 20 -20 0 -11 4 -20 9 -20 15 0
21 -31 10 -52 -9 -16 -18 -19 -45 -15 -31 5 -34 4 -29 -14 4 -13 2 -19 -9 -19
-13 0 -16 13 -16 70 0 40 -4 70 -10 70 -5 0 -10 9 -10 20 0 15 -7 20 -25 20
-24 0 -111 -39 -90 -40 6 -1 -18 -14 -53 -30 -36 -17 -61 -34 -57 -40 3 -6 -4
-10 -17 -10 -25 -1 -61 -23 -52 -32 3 -4 0 -9 -7 -14 -8 -4 -10 -3 -5 4 4 7 3
12 -3 12 -5 0 -13 -4 -16 -10 -3 -5 -36 -25 -73 -43 -37 -19 -89 -48 -116 -66
-28 -17 -56 -31 -63 -31 -8 0 -13 -13 -14 -32 0 -18 -3 -27 -6 -20 -2 6 -11
12 -19 12 -20 0 -94 -38 -94 -49 0 -4 -18 -14 -40 -21 -22 -7 -40 -16 -40 -19
0 -3 -20 -15 -44 -25 -25 -11 -43 -23 -40 -27 2 -5 -14 -13 -36 -20 -22 -7
-40 -15 -40 -19 0 -4 -19 -14 -42 -23 -43 -15 -102 -17 -116 -2 -4 4 4 4 18 0
24 -7 24 -7 5 9 -11 8 -25 16 -32 16 -6 0 -13 3 -15 8 -6 15 -68 43 -80 36 -6
-4 -8 -3 -5 3 3 5 -13 20 -36 33 -23 13 -44 26 -47 29 -14 16 -60 32 -71 26
-7 -5 -10 -4 -6 2 8 13 -4 23 -74 61 -40 22 -60 27 -70 20 -11 -8 -10 -9 3 -4
22 7 33 -10 12 -18 -8 -3 -22 0 -29 8 -12 12 -12 15 2 20 20 8 0 23 -168 119
-78 46 -122 65 -135 61 -16 -5 -16 -4 -4 5 13 9 13 11 -2 11 -10 0 -18 5 -18
10 0 6 -5 10 -10 10 -6 0 -29 13 -52 30 -22 16 -46 30 -53 30 -7 0 -31 13 -53
30 -23 17 -44 30 -47 30 -2 0 -77 43 -165 95 -88 52 -164 95 -168 95 -4 0 0
-5 8 -10 11 -7 12 -10 2 -10 -8 0 -16 9 -19 20 -3 11 -10 20 -15 20 -6 0 -44
20 -85 45 -41 25 -79 42 -85 39 -6 -4 -8 -3 -5 3 9 14 -57 43 -84 37 -23 -5
-23 -5 -5 10 19 16 19 16 -2 16 -12 0 -22 5 -22 11 0 5 -4 7 -10 4 -5 -3 -10
3 -10 14 0 11 5 23 10 26 6 4 8 16 5 28 -2 12 -2 16 1 8 5 -9 18 4 40 39 18
29 31 58 27 63 -3 6 -2 8 3 4 5 -3 20 12 32 34 12 21 18 39 12 39 -5 0 -10 4
-10 10 0 5 8 7 18 3 16 -6 16 -5 0 14 -22 24 -22 29 -4 36 10 4 13 1 10 -7 -3
-8 -1 -17 4 -20 5 -3 29 25 52 62 24 37 54 83 67 103 12 19 23 45 23 58 0 12
4 20 9 17 12 -8 73 94 67 110 -3 8 1 14 8 14 17 0 108 149 99 163 -3 5 -1 7 4
4 13 -8 26 20 16 35 -3 6 -2 8 4 5 11 -7 40 29 68 83 10 19 21 37 25 40 13 10
38 70 29 70 -5 0 -9 4 -9 10 0 5 7 7 15 4 9 -4 15 0 15 9 0 8 7 17 15 21 8 3
15 12 15 20 0 8 11 27 24 41 13 14 32 40 41 58 9 18 29 52 44 77 85 136 131
212 131 216 0 3 8 17 19 32 85 125 106 162 81 147 -5 -3 -10 -1 -10 5 0 6 7
10 16 8 10 -2 25 14 43 47 15 28 44 76 64 108 20 31 37 61 37 66 0 5 3 11 8
13 17 7 73 108 66 119 -4 7 -3 9 4 5 18 -11 36 32 21 50 -10 12 -10 17 0 27
10 9 11 8 6 -4 -4 -10 -2 -20 4 -23 10 -7 68 91 63 107 -1 5 2 6 8 2 5 -3 13
2 17 12 4 10 28 53 55 96 27 43 46 83 42 89 -4 7 -3 8 4 4 14 -8 36 30 26 46
-4 6 -3 8 3 5 16 -10 46 42 45 77 0 25 1 27 8 11 l8 -20 8 20 c4 11 32 57 61
102 43 65 53 87 48 110 -4 20 -3 23 3 9 6 -14 11 -16 16 -8z m-31 -43 c-3 -9
-8 -14 -10 -11 -3 3 -2 9 2 15 9 16 15 13 8 -4z m228 -158 c-13 -13 -26 -3
-16 12 3 6 11 8 17 5 6 -4 6 -10 -1 -17z m-384 -79 c-3 -8 -6 -5 -6 6 -1 11 2
17 5 13 3 -3 4 -12 1 -19z m-81 -123 c1 -8 -2 -17 -7 -21 -5 -3 -9 7 -9 22 0
27 12 26 16 -1z m-36 -76 c0 -6 -4 -7 -10 -4 -5 3 -10 11 -10 16 0 6 5 7 10 4
6 -3 10 -11 10 -16z m-2583 -52 c-1 -5 -11 -11 -20 -13 -14 -2 -15 1 -6 17 10
20 33 16 26 -4z m2301 -403 c-11 -11 -18 -12 -22 -5 -4 6 0 11 8 11 9 0 16 5
16 12 0 6 3 8 7 4 4 -3 0 -14 -9 -22z m-41 -66 c-3 -8 -6 -5 -6 6 -1 11 2 17
5 13 3 -3 4 -12 1 -19z m-147 -239 c0 -5 -4 -9 -10 -9 -5 0 -10 7 -10 16 0 8
5 12 10 9 6 -3 10 -10 10 -16z m1620 7 c0 -8 -4 -18 -10 -21 -5 -3 -10 3 -10
14 0 12 5 21 10 21 6 0 10 -6 10 -14z m110 -206 c0 -5 -2 -10 -4 -10 -3 0 -8
5 -11 10 -3 6 -1 10 4 10 6 0 11 -4 11 -10z m-1900 -69 c0 -6 -4 -13 -10 -16
-5 -3 -10 1 -10 9 0 9 5 16 10 16 6 0 10 -4 10 -9z m-320 -546 c0 -5 -5 -3
-10 5 -5 8 -10 20 -10 25 0 6 5 3 10 -5 5 -8 10 -19 10 -25z m-87 -110 c4 -8
2 -17 -3 -20 -6 -4 -10 3 -10 14 0 25 6 27 13 6z m-113 -200 c0 -8 -4 -17 -10
-20 -6 -4 -10 5 -10 20 0 15 4 24 10 20 6 -3 10 -12 10 -20z m-120 -189 c0 -3
-4 -8 -10 -11 -5 -3 -10 -1 -10 4 0 6 5 11 10 11 6 0 10 -2 10 -4z m3400 -476
c0 -46 -12 -51 -36 -15 -18 28 -34 33 -34 10 0 -8 4 -15 10 -15 5 0 6 -8 3
-17 -5 -13 -8 -14 -11 -3 -8 22 -42 56 -42 41 0 -11 -3 -11 -15 -1 -34 28 -17
40 55 40 l70 0 0 -40z m-3085 10 c3 -6 -1 -7 -9 -4 -18 7 -21 14 -7 14 6 0 13
-4 16 -10z m-382 -17 c-13 -5 -6 -33 8 -33 5 0 30 -15 56 -34 63 -45 129 -77
138 -68 5 4 6 3 3 -3 -5 -8 192 -129 300 -184 15 -8 50 -28 77 -46 44 -28 141
-84 254 -147 46 -26 201 -116 221 -128 68 -42 221 -130 225 -130 3 0 29 -15
58 -33 81 -51 191 -112 200 -109 4 1 7 -2 7 -8 0 -9 93 -61 106 -59 4 0 10 -5
15 -13 6 -9 11 -10 19 -2 8 8 6 15 -6 25 -9 8 -19 13 -21 12 -9 -8 -33 -2 -33
8 0 7 11 9 29 6 19 -4 31 -2 35 6 3 7 8 2 11 -10 4 -13 9 -23 10 -23 2 0 35
16 74 36 41 21 68 40 64 47 -3 6 -1 7 6 3 6 -4 19 -2 28 5 18 16 34 25 104 62
30 16 64 38 77 49 12 12 22 19 22 15 0 -3 50 23 111 58 60 36 112 65 115 65 2
0 25 15 51 34 27 18 73 45 103 59 30 14 72 37 93 51 21 14 40 26 43 26 3 0 28
15 57 33 29 18 73 44 100 57 26 14 47 31 47 38 0 7 4 10 10 7 9 -5 82 31 118
59 11 8 10 12 -5 18 -13 6 -10 7 9 3 18 -3 42 4 75 23 26 16 56 31 66 35 11 4
15 12 11 18 -4 7 -3 9 4 5 6 -3 26 4 45 17 31 21 33 25 18 35 -13 10 -11 10 7
1 20 -9 30 -6 63 15 21 14 43 26 47 26 5 0 21 11 36 25 14 13 26 21 26 18 0
-3 7 0 15 7 8 6 19 9 24 5 6 -3 -26 -57 -74 -125 -47 -65 -85 -124 -85 -129 0
-6 -4 -11 -9 -11 -5 0 -19 -13 -31 -30 -17 -24 -19 -34 -10 -52 9 -20 9 -21
-2 -7 -15 18 -22 14 -54 -36 -20 -32 -75 -108 -100 -139 -9 -10 -31 -42 -50
-71 -18 -30 -39 -57 -44 -60 -6 -4 -8 -16 -5 -28 4 -15 3 -18 -3 -9 -13 19
-34 -9 -26 -34 4 -13 3 -15 -3 -6 -8 10 -12 10 -22 -1 -6 -8 -9 -21 -6 -29 3
-8 -2 -21 -12 -29 -16 -13 -17 -12 -4 4 9 11 10 17 2 17 -6 0 -11 -4 -11 -9 0
-5 -6 -16 -13 -23 -38 -39 -115 -153 -110 -162 4 -6 3 -8 -1 -4 -8 7 -76 -75
-76 -91 0 -5 7 -12 16 -15 8 -3 12 -11 8 -17 -5 -9 -11 -6 -21 6 -13 18 -13
18 -28 -1 -8 -10 -15 -22 -15 -25 0 -3 -11 -18 -24 -32 -13 -14 -30 -39 -37
-56 -8 -17 -18 -31 -22 -31 -5 0 -5 -4 -2 -10 3 -5 2 -10 -4 -10 -18 0 -102
-121 -96 -139 3 -11 0 -18 -9 -18 -9 0 -12 5 -9 10 3 6 1 7 -5 3 -7 -4 -12
-14 -12 -22 0 -8 -4 -14 -10 -14 -5 0 -10 -4 -10 -10 0 -5 -6 -18 -14 -27 -27
-34 -142 -188 -151 -202 -6 -10 -4 -12 6 -6 8 5 -7 -13 -33 -40 -27 -26 -48
-52 -48 -57 0 -5 -6 -15 -12 -23 -23 -24 -100 -134 -98 -140 0 -4 -10 -15 -24
-26 -15 -11 -26 -25 -26 -30 0 -5 -18 -34 -40 -63 -41 -54 -49 -73 -28 -60 7
4 10 4 6 0 -3 -4 -8 -6 -11 -4 -7 4 -47 -33 -47 -44 0 -5 6 -6 13 -2 6 4 4 -2
-7 -14 -10 -12 -22 -20 -26 -17 -11 7 -33 -42 -25 -56 6 -9 3 -11 -9 -6 -12 5
-22 -2 -36 -25 -10 -17 -16 -36 -13 -41 3 -6 1 -7 -5 -3 -7 4 -19 -5 -29 -22
-10 -16 -24 -27 -31 -25 -6 3 -10 8 -8 12 3 4 -28 51 -67 104 -40 54 -110 151
-157 216 -47 65 -88 117 -91 115 -3 -2 -6 2 -6 9 0 14 -111 170 -125 175 -4 2
-8 8 -8 13 0 6 -15 30 -32 54 -18 24 -44 60 -58 79 -14 19 -28 32 -33 29 -4
-2 -6 0 -5 5 3 11 -127 201 -151 220 -9 7 -16 17 -16 22 0 18 -119 169 -128
163 -6 -3 -7 -1 -3 5 4 6 -28 59 -71 118 -43 58 -98 135 -123 170 -25 35 -85
119 -134 186 -49 68 -109 151 -134 186 -24 34 -48 60 -53 57 -5 -4 -7 0 -4 7
3 7 -7 27 -21 43 -15 17 -37 47 -51 68 -13 21 -28 35 -33 32 -5 -3 -12 0 -16
6 -4 8 -3 9 4 5 23 -14 11 8 -46 88 -127 175 -126 174 -107 202 9 14 20 22 23
18 4 -3 2 -9 -5 -11z m97 -53 c0 -5 -4 -10 -9 -10 -6 0 -13 5 -16 10 -3 6 1
10 9 10 9 0 16 -4 16 -10z m-105 -50 c-3 -5 -11 -10 -16 -10 -6 0 -7 5 -4 10
3 6 11 10 16 10 6 0 7 -4 4 -10z m523 -182 c20 -15 22 -19 7 -13 -11 4 -28 10
-37 12 -10 3 -15 9 -12 14 8 13 13 11 42 -13z m2362 12 c0 -5 -7 -10 -15 -10
-8 0 -15 5 -15 10 0 6 7 10 15 10 8 0 15 -4 15 -10z m-2315 -50 c3 -5 2 -10
-4 -10 -5 0 -13 5 -16 10 -3 6 -2 10 4 10 5 0 13 -4 16 -10z m1845 -20 c0 -5
-4 -10 -10 -10 -5 0 -10 5 -10 10 0 6 5 10 10 10 6 0 10 -4 10 -10z m-1345
-40 c3 -5 1 -10 -4 -10 -6 0 -11 5 -11 10 0 6 2 10 4 10 3 0 8 -4 11 -10z
m1185 -46 c0 -8 -5 -12 -10 -9 -6 4 -8 11 -5 16 9 14 15 11 15 -7z m-2011 -44
c0 -11 -3 -10 -14 4 -8 11 -15 27 -15 35 0 11 4 10 15 -5 8 -10 14 -26 14 -34z
m2351 26 c0 -11 -19 -15 -25 -6 -3 5 1 10 9 10 9 0 16 -2 16 -4z m-2290 -81
c0 -8 -4 -15 -10 -15 -5 0 -7 7 -4 15 4 8 8 15 10 15 2 0 4 -7 4 -15z m1910
-5 c0 -13 -7 -20 -20 -20 -13 0 -20 7 -20 20 0 13 7 20 20 20 13 0 20 -7 20
-20z m-1187 -39 c5 -5 6 -14 2 -20 -4 -8 -11 -6 -21 4 -9 8 -22 15 -29 15 -8
0 -17 5 -21 12 -8 13 55 3 69 -11z m1312 -21 c3 -5 1 -10 -4 -10 -6 0 -11 5
-11 10 0 6 2 10 4 10 3 0 8 -4 11 -10z m665 -14 c0 -2 -8 -10 -17 -17 -16 -13
-17 -12 -4 4 13 16 21 21 21 13z m-1815 -16 c8 -13 -5 -13 -25 0 -13 8 -13 10
2 10 9 0 20 -4 23 -10z m79 -85 c8 -8 21 -15 29 -15 8 0 18 -7 21 -16 8 -20
-2 -33 -12 -18 -4 6 -22 16 -39 23 -18 8 -33 20 -33 27 0 18 15 18 34 -1z
m851 -16 c-10 -15 -25 -10 -19 6 4 8 10 12 15 9 5 -3 7 -10 4 -15z m-645 -83
c0 -3 -8 -3 -17 -1 -10 2 -22 4 -26 4 -5 1 -5 6 -2 11 6 9 45 -4 45 -14z
m-970 -6 c0 -5 -5 -10 -11 -10 -5 0 -7 5 -4 10 3 6 8 10 11 10 2 0 4 -4 4 -10z
m1400 -20 c0 -5 -5 -10 -11 -10 -5 0 -7 5 -4 10 3 6 8 10 11 10 2 0 4 -4 4
-10z m-390 -10 c0 -5 -10 -10 -22 -9 -22 0 -22 1 -3 9 11 5 21 9 23 9 1 1 2
-3 2 -9z m65 -31 c11 -16 1 -19 -13 -3 -7 8 -8 14 -3 14 5 0 13 -5 16 -11z
m155 -9 c0 -5 -13 -10 -30 -10 -16 0 -30 5 -30 10 0 6 14 10 30 10 17 0 30 -4
30 -10z m1021 -57 c-12 -20 -14 -14 -5 12 4 9 9 14 11 11 3 -2 0 -13 -6 -23z
m-178 -280 c-8 -21 -22 -5 -16 18 4 15 8 17 13 8 5 -7 6 -18 3 -26z m-1783 -4
c0 -5 -7 -9 -15 -9 -15 0 -20 12 -9 23 8 8 24 -1 24 -14z m38 -50 c-16 -10
-33 5 -23 21 5 8 11 8 21 -1 12 -10 12 -14 2 -20z m1732 21 c0 -5 -5 -10 -11
-10 -5 0 -7 5 -4 10 3 6 8 10 11 10 2 0 4 -4 4 -10z m-70 -58 c0 -4 -10 -13
-22 -21 -23 -14 -23 -14 -4 8 20 22 26 25 26 13z m-1580 -62 c0 -5 -4 -10 -10
-10 -5 0 -10 5 -10 10 0 6 5 10 10 10 6 0 10 -4 10 -10z m1545 -10 c3 -5 -1
-10 -9 -10 -9 0 -16 5 -16 10 0 6 4 10 9 10 6 0 13 -4 16 -10z m-1511 -36 c3
-8 2 -12 -4 -9 -6 3 -10 10 -10 16 0 14 7 11 14 -7z m83 -136 c-3 -8 -6 -5 -6
6 -1 11 2 17 5 13 3 -3 4 -12 1 -19z m1293 2 c0 -5 -2 -10 -4 -10 -3 0 -8 5
-11 10 -3 6 -1 10 4 10 6 0 11 -4 11 -10z m10 -61 c0 -10 -6 -19 -14 -19 -11
0 -15 29 -7 48 4 10 21 -12 21 -29z m-1225 -8 c3 -5 1 -12 -5 -16 -5 -3 -10 1
-10 9 0 18 6 21 15 7z m39 -76 c3 -8 1 -15 -4 -15 -6 0 -10 7 -10 15 0 8 2 15
4 15 2 0 6 -7 10 -15z m46 -63 c0 -15 -2 -15 -10 -2 -13 20 -13 33 0 25 6 -3
10 -14 10 -23z m1020 -52 c0 -11 -4 -20 -10 -20 -5 0 -10 -18 -10 -40 0 -49
-25 -56 -35 -9 -5 20 -11 29 -21 25 -16 -6 -19 10 -3 19 6 4 8 13 5 20 -5 14
12 22 52 24 16 1 22 -5 22 -19z m-110 -60 c0 -5 -4 -10 -10 -10 -5 0 -10 5
-10 10 0 6 5 10 10 10 6 0 10 -4 10 -10z m27 -32 c-3 -8 -6 -5 -6 6 -1 11 2
17 5 13 3 -3 4 -12 1 -19z m-67 -23 c0 -12 -19 -12 -23 0 -4 9 -1 12 9 8 7 -3
14 -7 14 -8z m-710 -65 c0 -5 -2 -10 -4 -10 -3 0 -8 5 -11 10 -3 6 -1 10 4 10
6 0 11 -4 11 -10z m585 -99 c3 -5 1 -12 -5 -16 -5 -3 -10 1 -10 9 0 18 6 21
15 7z m-461 -80 c-6 -6 -34 20 -34 32 0 6 8 2 19 -9 10 -10 17 -21 15 -23z
m81 -90 c3 -5 1 -12 -5 -16 -5 -3 -10 1 -10 9 0 18 6 21 15 7z m295 -23 c0 -5
-7 -8 -15 -8 -8 0 -15 -4 -15 -10 0 -5 -7 -10 -16 -10 -11 0 -14 5 -10 16 3 9
6 22 6 29 0 10 5 11 25 2 14 -7 25 -15 25 -19z m-83 -13 c0 -8 -4 -15 -9 -15
-10 0 -11 14 -1 23 9 10 10 9 10 -8z"/>
<path d="M7111 4784 c0 -11 3 -14 6 -6 3 7 2 16 -1 19 -3 4 -6 -2 -5 -13z"/>
</g>
</svg>
