<?xml version="1.0" standalone="no"?>
<!DOCTYPE svg PUBLIC "-//W3C//DTD SVG 20010904//EN"
 "http://www.w3.org/TR/2001/REC-SVG-20010904/DTD/svg10.dtd">
<svg version="1.0" xmlns="http://www.w3.org/2000/svg"
 width="191.000000pt" height="122.000000pt" viewBox="0 0 191.000000 122.000000"
 preserveAspectRatio="xMidYMid meet">

<g transform="translate(0.000000,122.000000) scale(0.100000,-0.100000)"
fill="#000000" stroke="none">
<path d="M1094 1199 c-20 -22 -66 -49 -84 -49 -5 0 -10 7 -10 15 0 8 -4 15
-10 15 -5 0 -10 -4 -10 -10 0 -18 -45 -21 -89 -5 -82 28 -186 14 -249 -36 -44
-34 -69 -86 -88 -180 l-18 -89 -81 -2 -80 -2 78 -3 77 -4 -6 -27 c-9 -39 -43
-108 -59 -122 -11 -9 -29 -8 -78 4 -35 9 -73 16 -86 16 -45 0 -187 78 -230
126 -61 69 -65 116 -16 188 34 50 22 45 -15 -6 -61 -84 -30 -178 82 -252 29
-19 65 -38 81 -42 29 -7 47 -24 25 -24 -18 0 -150 -92 -156 -108 -6 -19 53
-70 162 -143 l96 -63 0 -70 c0 -87 13 -136 42 -164 13 -11 61 -34 108 -51 47
-16 128 -47 180 -68 l95 -38 290 0 c251 0 298 2 348 18 77 24 123 67 147 137
12 36 25 56 37 59 10 2 26 12 36 22 10 10 24 19 32 19 41 0 75 83 40 96 -13 5
-13 10 1 36 8 16 14 42 12 57 -2 23 12 41 81 109 45 45 80 86 77 91 -7 11 -92
41 -118 41 -10 0 -18 5 -18 10 0 6 4 10 9 10 26 0 134 86 157 126 23 39 26 53
22 119 -3 66 -7 77 -33 105 -25 26 -36 30 -79 29 -28 0 -59 -4 -70 -8 -15 -6
-10 -10 23 -20 32 -9 46 -20 59 -47 16 -34 15 -37 -3 -72 -15 -27 -36 -45 -79
-67 -57 -28 -60 -28 -70 -10 -23 39 -56 65 -100 77 -44 12 -46 13 -51 57 -9
65 -21 85 -69 112 -37 22 -52 24 -156 23 -97 -1 -127 -5 -189 -27 l-74 -27
-33 30 c-31 27 -32 30 -15 39 12 7 21 7 28 0 15 -15 48 -3 89 33 l34 30 0 -25
c0 -20 4 -24 20 -20 16 4 19 2 14 -13 -5 -16 -4 -16 5 -4 16 22 13 30 -9 30
-13 0 -20 7 -20 20 0 26 -12 25 -36 -1z m-271 -46 c-7 -2 -21 -2 -30 0 -10 3
-4 5 12 5 17 0 24 -2 18 -5z m-66 -9 c-3 -3 -12 -4 -19 -1 -8 3 -5 6 6 6 11 1
17 -2 13 -5z m169 -10 c68 -32 164 -154 164 -209 0 -16 -34 -20 -89 -9 -25 5
-31 11 -31 33 0 79 -56 185 -103 194 -22 4 -21 4 1 6 13 0 39 -6 58 -15z
m-231 -13 c-47 -29 -74 -64 -100 -127 -14 -33 -25 -52 -25 -43 0 35 62 140 98
164 20 14 41 25 47 25 5 0 -3 -8 -20 -19z m545 -88 c35 -93 32 -98 -56 -109
-66 -9 -77 -8 -81 5 -14 45 -29 76 -50 107 -26 40 -30 37 75 64 78 20 79 20
112 -67z m83 80 c-13 -2 -35 -2 -50 0 -16 2 -5 4 22 4 28 0 40 -2 28 -4z m64
-9 c-3 -3 -12 -4 -19 -1 -8 3 -5 6 6 6 11 1 17 -2 13 -5z m93 -65 c0 -4 -4
-11 -10 -14 -5 -3 -7 0 -4 8 3 8 1 18 -5 22 -6 3 -11 12 -11 18 1 13 30 -21
30 -34z m370 31 c28 -15 54 -92 46 -141 -12 -77 -74 -160 -146 -199 -29 -16
-54 -5 -47 20 3 11 -3 31 -15 45 -25 32 -18 51 22 60 45 10 120 84 120 119 0
38 -16 64 -53 86 l-32 20 43 0 c24 0 52 -4 62 -10z m-363 -97 c-3 -10 -5 -2
-5 17 0 19 2 27 5 18 2 -10 2 -26 0 -35z m-592 -18 c-23 -8 -125 -11 -113 -4
7 5 38 8 68 8 30 0 51 -2 45 -4z m510 -5 c-3 -5 -25 -9 -48 -8 l-42 1 45 7
c25 4 46 8 48 8 2 1 0 -2 -3 -8z m48 3 c-7 -2 -19 -2 -25 0 -7 3 -2 5 12 5 14
0 19 -2 13 -5z m-886 -45 c-3 -8 -6 -5 -6 6 -1 11 2 17 5 13 3 -3 4 -12 1 -19z
m163 12 c-8 -5 -19 -10 -25 -10 -5 0 -3 5 5 10 8 5 20 10 25 10 6 0 3 -5 -5
-10z m733 3 c-7 -2 -19 -2 -25 0 -7 3 -2 5 12 5 14 0 19 -2 13 -5z m113 -9
c10 -8 13 -12 6 -9 -8 4 -26 11 -40 15 -22 7 -23 8 -6 9 11 1 29 -6 40 -15z
m-726 -4 c-36 -4 -81 -11 -100 -15 -19 -4 -32 -5 -29 -2 10 12 84 25 139 25
l55 -1 -65 -7z m435 2 c12 -8 33 -53 45 -94 8 -24 4 -29 -50 -62 -65 -41 -80
-44 -80 -18 0 10 -12 34 -26 53 -14 19 -34 51 -45 71 l-19 37 33 6 c17 2 52 6
77 8 25 2 47 4 50 5 3 1 10 -2 15 -6z m128 1 c-7 -2 -19 -2 -25 0 -7 3 -2 5
12 5 14 0 19 -2 13 -5z m-442 -15 c0 -9 2 -9 5 -2 3 8 21 8 63 0 56 -10 61
-14 95 -65 42 -62 43 -65 14 -50 -12 6 -49 19 -82 29 -54 15 -62 20 -66 46 -3
16 -10 29 -15 30 -6 0 -17 3 -25 7 -8 3 -22 8 -30 10 -8 3 -3 6 13 6 15 1 27
-5 28 -11z m387 5 c-10 -2 -26 -2 -35 0 -10 3 -2 5 17 5 19 0 27 -2 18 -5z
m262 -18 c7 -9 8 -15 2 -15 -5 0 -12 7 -16 15 -3 8 -4 15 -2 15 2 0 9 -7 16
-15z m-1063 -27 c-3 -8 -6 -5 -6 6 -1 11 2 17 5 13 3 -3 4 -12 1 -19z m381
-15 c-10 -2 -26 -2 -35 0 -10 3 -2 5 17 5 19 0 27 -2 18 -5z m-91 -9 c-3 -3
-12 -4 -19 -1 -8 3 -5 6 6 6 11 1 17 -2 13 -5z m-300 -26 c-3 -8 -6 -5 -6 6
-1 11 2 17 5 13 3 -3 4 -12 1 -19z m543 -19 c94 -31 100 -35 100 -74 0 -45
-15 -83 -43 -107 l-22 -19 24 7 c17 4 22 2 19 -7 -7 -22 -51 -48 -88 -54 -35
-5 -34 -5 5 8 l40 13 -3 64 c-4 76 -20 106 -69 126 -78 33 -169 -14 -180 -93
l-6 -43 -28 17 c-16 10 -57 45 -91 80 -50 51 -58 63 -41 63 11 0 40 7 64 16
109 39 208 40 319 3z m478 24 c-15 -2 -42 -2 -60 0 -18 2 -6 4 27 4 33 0 48
-2 33 -4z m-148 -7 c0 -2 -15 -6 -34 -8 -19 -2 -32 0 -30 4 5 8 64 12 64 4z
m148 -27 c-42 -4 -101 -15 -129 -23 -29 -9 -55 -14 -57 -11 -3 3 10 8 29 12
33 6 33 7 9 14 -17 4 -6 6 33 7 33 0 61 3 65 6 3 3 33 5 66 5 l61 -2 -77 -8z
m119 -6 c3 -7 -4 -9 -16 -6 -12 3 -18 9 -15 15 7 11 26 6 31 -9z m-337 -12 c0
-5 3 -16 6 -25 7 -19 -63 -40 -101 -30 -24 6 -23 8 27 35 58 31 68 34 68 20z
m30 5 c0 -3 -4 -8 -10 -11 -5 -3 -10 -1 -10 4 0 6 5 11 10 11 6 0 10 -2 10 -4z
m-620 -89 c44 -43 73 -74 63 -69 -22 12 -172 157 -157 151 7 -2 49 -39 94 -82z
m926 61 c25 -25 20 -83 -11 -123 -14 -19 -30 -35 -34 -35 -5 0 -11 21 -14 47
-4 37 -12 54 -36 75 -17 15 -41 28 -53 28 -33 0 -94 -72 -114 -135 l-18 -55
-51 0 c-62 0 -109 14 -153 47 -30 23 -31 26 -17 46 8 12 15 32 15 44 0 22 3
23 54 17 43 -5 69 -1 132 20 118 38 153 45 222 43 41 -2 68 -8 78 -19z m-1180
-27 c-10 -11 -15 -24 -11 -30 3 -7 0 -8 -9 -5 -13 5 -12 10 7 34 12 15 24 26
26 24 2 -2 -4 -13 -13 -23z m469 -4 c19 -15 13 -37 -9 -37 -18 0 -39 27 -31
40 8 13 17 13 40 -3z m-632 -24 c-18 -2 -48 -2 -65 0 -18 2 -4 4 32 4 36 0 50
-2 33 -4z m-123 -18 c-14 -8 -32 -14 -40 -14 -8 0 -1 6 15 14 40 18 57 18 25
0z m215 5 c25 -11 -1 -11 -35 0 -20 6 -21 8 -5 8 11 0 29 -3 40 -8z m1095 -6
c0 -8 -4 -12 -10 -9 -5 3 -10 10 -10 16 0 5 5 9 10 9 6 0 10 -7 10 -16z m210
8 c0 -5 -7 -17 -16 -28 -8 -10 -14 -14 -11 -9 2 6 7 18 10 28 7 17 17 23 17 9z
m61 -14 c22 -6 39 -15 39 -19 0 -4 -15 -2 -32 5 -18 7 -40 16 -48 19 -28 10 3
7 41 -5z m-1514 -4 c-3 -3 -12 -4 -19 -1 -8 3 -5 6 6 6 11 1 17 -2 13 -5z m59
-26 l19 -21 -30 18 c-41 26 -40 25 -23 25 8 0 23 -10 34 -22z m727 8 c6 -16
-2 -28 -14 -20 -12 7 -11 34 0 34 5 0 11 -6 14 -14z m-952 -18 l-23 -21 28
-23 c70 -56 76 -63 26 -33 -64 38 -73 56 -43 81 32 25 40 23 12 -4z m849 2 c0
-5 -4 -10 -10 -10 -5 0 -10 5 -10 10 0 6 5 10 10 10 6 0 10 -4 10 -10z m850 4
c0 -1 -26 -29 -59 -63 -33 -34 -67 -61 -77 -60 -14 0 -11 3 9 11 16 6 24 14
20 21 -3 7 -3 9 2 5 7 -7 87 73 80 80 -10 10 -75 -21 -75 -36 0 -15 -2 -15
-10 -2 -8 12 -2 19 28 32 29 13 82 21 82 12z m-1510 -19 c17 -9 30 -18 30 -21
0 -2 -10 1 -22 8 -13 7 -54 15 -93 19 l-70 6 63 1 c40 1 74 -4 92 -13z m1286
4 c10 -17 -13 -36 -27 -22 -12 12 -4 33 11 33 5 0 12 -5 16 -11z m-1446 -9 c0
-5 -2 -10 -4 -10 -3 0 -8 5 -11 10 -3 6 -1 10 4 10 6 0 11 -4 11 -10z m270
-37 c0 -7 -39 17 -46 28 -3 6 5 3 20 -6 14 -10 26 -19 26 -22z m480 14 c13 -5
13 -6 -1 -6 -8 -1 -24 6 -35 15 -19 15 -19 15 1 6 11 -5 27 -12 35 -15z m790
4 c0 -13 -53 -46 -69 -43 -7 2 -10 -1 -7 -6 4 -6 -3 -8 -16 -5 -19 4 -20 3 -8
-6 17 -12 6 -14 -28 -5 -20 6 -16 9 28 24 29 10 59 25 68 34 18 18 32 21 32 7z
m-1315 -21 c10 -11 16 -20 13 -20 -3 0 -13 9 -23 20 -10 11 -16 20 -13 20 3 0
13 -9 23 -20z m125 5 c-7 -8 -26 -14 -44 -14 l-31 2 30 4 c17 3 34 9 40 14 15
15 19 10 5 -6z m728 -11 c37 -19 71 -27 130 -31 61 -4 79 -9 75 -19 -7 -18 29
-25 105 -21 41 3 60 1 53 -6 -12 -12 -128 -10 -220 3 -96 14 -192 12 -223 -4
-15 -8 -30 -11 -33 -6 -3 5 4 11 15 15 15 5 19 12 15 26 -5 14 19 66 32 69 0
0 24 -12 51 -26z m-698 2 c0 -2 -8 -10 -17 -17 -16 -13 -17 -12 -4 4 13 16 21
21 21 13z m523 -3 c-18 -2 -48 -2 -65 0 -18 2 -4 4 32 4 36 0 50 -2 33 -4z
m629 -19 c-18 -14 -29 -30 -26 -36 5 -7 2 -8 -6 -3 -7 4 -16 2 -21 -6 -4 -7
-12 -10 -16 -5 -4 5 -3 11 4 13 7 2 28 18 49 34 20 16 40 29 43 29 3 0 -9 -12
-27 -26z m-1193 -10 c10 -9 -65 -3 -78 5 -10 6 1 8 30 4 24 -3 46 -7 48 -9z
m636 -14 c4 -6 -1 -7 -11 -3 -13 5 -15 3 -9 -7 6 -10 4 -12 -9 -7 -10 4 -23 7
-29 8 -7 1 -1 5 13 9 35 11 38 11 45 0z m415 0 c17 -6 8 -7 -30 -4 -41 3 -50
2 -35 -6 19 -9 19 -10 1 -7 -11 1 -21 8 -24 15 -4 14 48 15 88 2z m-697 -7
c-7 -2 -19 -2 -25 0 -7 3 -2 5 12 5 14 0 19 -2 13 -5z m-598 -11 c-7 -8 60
-51 103 -67 25 -9 30 -14 16 -14 -18 -1 -144 71 -144 82 0 2 7 4 15 4 8 0 13
-3 10 -5z m768 1 c-18 -2 -48 -2 -65 0 -18 2 -4 4 32 4 36 0 50 -2 33 -4z
m380 -30 c136 -14 165 -14 215 -2 71 17 74 17 80 1 2 -7 -2 -10 -12 -6 -9 4
-36 -7 -63 -24 -27 -16 -58 -33 -71 -37 -40 -12 -12 -25 53 -25 51 0 63 -3 59
-14 -3 -9 1 -13 12 -13 25 3 30 -30 8 -54 -21 -24 -85 -25 -164 -4 -75 20
-121 19 -188 -6 -31 -12 -91 -34 -132 -48 -41 -14 -68 -27 -60 -29 18 -3 83
17 169 53 37 16 85 28 110 28 54 1 191 -31 191 -44 0 -13 -38 -11 -93 6 -58
17 -92 12 -223 -39 -50 -19 -120 -40 -156 -47 -59 -11 -70 -10 -92 5 -52 33
-24 94 54 117 22 7 58 27 79 46 22 18 44 33 50 33 6 0 11 5 11 11 0 9 24 10
83 6 l82 -6 -39 35 c-61 53 -127 66 -176 35 -12 -8 -13 -16 -3 -41 10 -26 10
-30 -2 -20 -18 15 -35 64 -26 77 15 26 53 26 244 6z m-946 -49 c-3 -3 -12 -4
-19 -1 -8 3 -5 6 6 6 11 1 17 -2 13 -5z m-85 -71 c-5 -76 -10 -83 -11 -15 0
34 2 62 7 62 4 0 6 -21 4 -47z m85 41 c-3 -3 -12 -4 -19 -1 -8 3 -5 6 6 6 11
1 17 -2 13 -5z m725 -37 c-2 -5 -10 0 -18 10 -20 26 -17 36 4 16 11 -10 17
-22 14 -26z m-32 -22 c-7 -8 -17 -15 -23 -15 -6 0 -2 7 9 15 25 19 30 19 14 0z
m-121 -53 c-14 -12 -25 -35 -29 -63 -7 -43 -8 -43 -9 -8 -1 36 29 89 51 89 6
0 0 -8 -13 -18z m-652 -34 c-3 -8 -6 -5 -6 6 -1 11 2 17 5 13 3 -3 4 -12 1
-19z m1151 -9 c27 -9 29 -13 22 -38 -37 -131 -97 -160 -345 -170 -93 -4 -171
-6 -173 -5 -2 1 9 15 23 30 18 20 25 37 23 55 -4 25 -1 27 66 42 39 9 116 35
171 57 103 41 158 48 213 29z m-1090 -64 c20 -14 32 -25 27 -25 -16 0 -85 60
-85 73 0 7 5 4 11 -5 5 -10 27 -29 47 -43z m596 -34 c-2 -3 -12 3 -22 13 -16
17 -16 18 5 5 12 -7 20 -15 17 -18z m-484 -11 c13 -9 13 -10 0 -10 -8 0 -22 5
-30 10 -13 9 -13 10 0 10 8 0 22 -5 30 -10z m80 -32 c10 -6 7 -7 -10 -2 -14 3
-32 11 -40 16 -10 6 -7 7 10 2 14 -3 32 -11 40 -16z m50 -18 c8 -5 11 -10 5
-10 -5 0 -17 5 -25 10 -8 5 -10 10 -5 10 6 0 17 -5 25 -10z m65 -20 c13 -5 14
-9 5 -9 -8 0 -24 4 -35 9 -13 5 -14 9 -5 9 8 0 24 -4 35 -9z m58 -17 c-7 -2
-19 -2 -25 0 -7 3 -2 5 12 5 14 0 19 -2 13 -5z m175 -10 c-26 -2 -71 -2 -100
0 -29 2 -8 3 47 3 55 0 79 -1 53 -3z"/>
<path d="M193 1103 c20 -2 54 -2 75 0 20 2 3 4 -38 4 -41 0 -58 -2 -37 -4z"/>
<path d="M104 1084 c-19 -15 -19 -15 1 -6 11 5 27 12 35 15 13 5 13 6 -1 6 -8
1 -24 -6 -35 -15z"/>
<path d="M310 1092 c0 -5 -18 -15 -39 -22 -59 -19 -111 -66 -111 -99 0 -15 8
-35 18 -44 27 -25 103 -55 152 -62 35 -4 30 -2 -23 13 -68 19 -111 43 -131 75
-8 12 -6 23 10 44 23 32 116 83 151 83 13 0 23 5 23 10 0 6 -11 10 -25 10 -14
0 -25 -4 -25 -8z"/>
</g>
</svg>
