<?xml version="1.0" encoding="UTF-8"?>
<svg version="1.1" xmlns="http://www.w3.org/2000/svg" width="191" height="122">
<path d="M0 0 C2.1875 0.3125 2.1875 0.3125 4 1 C4 1.66 4 2.32 4 3 C5.32 3 6.64 3 8 3 C7.49396008 5.16874252 7.00016187 6.99967627 6 9 C6.556875 8.855625 7.11375 8.71125 7.6875 8.5625 C17.28100138 6.22894561 26.51367783 5.95204324 35.375 10.875 C39.7388535 14.40764331 39.7388535 14.40764331 41 17 C41.23534378 20.01763028 41.1742084 22.98038766 41 26 C42.7634375 26.309375 42.7634375 26.309375 44.5625 26.625 C49.34363338 27.80110768 52.77982573 30.29679959 56 34 C56 34.66 56 35.32 56 36 C64.37839586 33.3533718 64.37839586 33.3533718 70 27 C70.66680368 23.95720628 70.66680368 23.95720628 70 21 C67.93127504 18.16508061 66.6427671 17.17530012 63.25 16.25 C62.5075 16.1675 61.765 16.085 61 16 C61.33 15.01 61.66 14.02 62 13 C66.06872744 11.64375752 69.75021964 11.33393562 74 12 C77.0735547 13.70540923 79.40579136 15.81158271 81 19 C81.17794636 21.76546142 81.27761722 24.48263275 81.3125 27.25 C81.34150391 28.00152344 81.37050781 28.75304687 81.40039062 29.52734375 C81.4608068 34.85326155 80.51012251 37.77678781 77 42 C75 44.01171875 75 44.01171875 73 45.6875 C72.01 46.52861328 72.01 46.52861328 71 47.38671875 C69.03331097 48.97313002 67.03211458 50.49859391 65 52 C65.61488281 52.19335938 66.22976562 52.38671875 66.86328125 52.5859375 C67.67152344 52.84632812 68.47976562 53.10671875 69.3125 53.375 C70.11300781 53.63023438 70.91351563 53.88546875 71.73828125 54.1484375 C74 55 74 55 77 57 C75.58911589 60.30653354 73.94468631 62.1547817 71.1875 64.4375 C64.63117526 70.00441573 61.42908069 73.24688078 60 82 C59.6596875 83.11375 59.6596875 83.11375 59.3125 84.25 C59.1578125 85.11625 59.1578125 85.11625 59 86 C59.66 86.66 60.32 87.32 61 88 C60.90532495 91.59765179 60.2283716 92.77763818 57.625 95.3125 C55 97 55 97 52 97 C51.67 97.99 51.34 98.98 51 100 C48.525 100.495 48.525 100.495 46 101 C45.62875 102.794375 45.62875 102.794375 45.25 104.625 C43.50904496 111.3861062 40.26360328 115.21181802 34.48828125 118.921875 C26.66529692 122.31142551 18.55814186 122.33213491 10.1796875 122.37109375 C8.96282257 122.38012222 7.74595764 122.3891507 6.49221802 122.39845276 C3.92550089 122.41290645 1.35874733 122.42182979 -1.20800781 122.42553711 C-5.09244448 122.43740057 -8.97527428 122.48661212 -12.859375 122.53710938 C-25.85645687 122.62219939 -37.06639617 122.46853682 -49 117 C-50.4856232 116.42794448 -51.97349579 115.86164806 -53.46484375 115.3046875 C-55.24789146 114.57060936 -57.03092599 113.83649901 -58.8137207 113.10180664 C-62.07695804 111.76366924 -65.33675745 110.53579895 -68.6875 109.4375 C-73.6242196 107.29514998 -75.28564852 104.78587871 -77.25 99.875 C-78.39145845 93.97746467 -78.91988776 87.75966328 -77 82 C-77.82242188 81.79117188 -78.64484375 81.58234375 -79.4921875 81.3671875 C-83.9787981 79.61850853 -87.33827669 77.05461711 -91.125 74.125 C-91.82753906 73.59519531 -92.53007813 73.06539063 -93.25390625 72.51953125 C-101.09039876 66.54957571 -101.09039876 66.54957571 -103 64 C-103.16015625 61.55078125 -103.16015625 61.55078125 -102 59 C-99.82129607 57.18007335 -97.81229742 55.69145495 -95.4375 54.1875 C-94.82197266 53.78080078 -94.20644531 53.37410156 -93.57226562 52.95507812 C-92.05694751 51.9566127 -90.52958612 50.97646735 -89 50 C-89.65226562 49.69707031 -90.30453125 49.39414062 -90.9765625 49.08203125 C-98.90095842 45.28346388 -104.43201225 41.78249764 -109 34 C-110.47510842 29.57467473 -110.93599052 26.04812687 -108.94140625 21.68359375 C-105.12589385 15.40712756 -100.99046781 12.46662663 -94.01953125 10.41796875 C-87.21746575 9.01019117 -80.61299684 10.24904103 -74 12 C-74 12.66 -74 13.32 -74 14 C-74.89203125 14.31453125 -75.7840625 14.6290625 -76.703125 14.953125 C-77.87359375 15.38109375 -79.0440625 15.8090625 -80.25 16.25 C-81.41015625 16.66765625 -82.5703125 17.0853125 -83.765625 17.515625 C-86.98125189 18.9913958 -88.81267108 20.24418212 -91 23 C-91.16210219 25.60648505 -91.16210219 25.60648505 -90 28 C-81.54440497 35.41261414 -67.67836821 35.00147272 -57 36 C-56.90203125 35.17757812 -56.8040625 34.35515625 -56.703125 33.5078125 C-55.31773851 23.16518575 -53.82439895 14.15476286 -45.27734375 7.40625 C-39.42710794 3.79375447 -32.82802942 2.28126006 -26 3 C-23.18939194 3.78095043 -20.41439501 4.61179308 -17.6484375 5.5390625 C-14.45571103 6.09472876 -12.85580003 5.43305489 -10 4 C-10 4.66 -10 5.32 -10 6 C-5.23872375 4.26074901 -5.23872375 4.26074901 -1.3125 1.25 C-0.879375 0.8375 -0.44625 0.425 0 0 Z " fill="#CE6313" transform="translate(110,0)"/>
<path d="M0 0 C2.1875 0.3125 2.1875 0.3125 4 1 C4 1.66 4 2.32 4 3 C5.32 3 6.64 3 8 3 C7.49396008 5.16874252 7.00016187 6.99967627 6 9 C6.556875 8.855625 7.11375 8.71125 7.6875 8.5625 C17.28100138 6.22894561 26.51367783 5.95204324 35.375 10.875 C39.7388535 14.40764331 39.7388535 14.40764331 41 17 C41.23534378 20.01763028 41.1742084 22.98038766 41 26 C42.7634375 26.309375 42.7634375 26.309375 44.5625 26.625 C49.34363338 27.80110768 52.77982573 30.29679959 56 34 C56 34.66 56 35.32 56 36 C64.37839586 33.3533718 64.37839586 33.3533718 70 27 C70.66680368 23.95720628 70.66680368 23.95720628 70 21 C67.93127504 18.16508061 66.6427671 17.17530012 63.25 16.25 C62.5075 16.1675 61.765 16.085 61 16 C61.33 15.01 61.66 14.02 62 13 C66.06872744 11.64375752 69.75021964 11.33393562 74 12 C77.0735547 13.70540923 79.40579136 15.81158271 81 19 C81.17794636 21.76546142 81.27761722 24.48263275 81.3125 27.25 C81.34150391 28.00152344 81.37050781 28.75304687 81.40039062 29.52734375 C81.4608068 34.85326155 80.51012251 37.77678781 77 42 C75 44.01171875 75 44.01171875 73 45.6875 C72.01 46.52861328 72.01 46.52861328 71 47.38671875 C69.03331097 48.97313002 67.03211458 50.49859391 65 52 C65.61488281 52.19335938 66.22976562 52.38671875 66.86328125 52.5859375 C67.67152344 52.84632812 68.47976562 53.10671875 69.3125 53.375 C70.11300781 53.63023438 70.91351563 53.88546875 71.73828125 54.1484375 C74 55 74 55 77 57 C75.58911589 60.30653354 73.94468631 62.1547817 71.1875 64.4375 C64.63117526 70.00441573 61.42908069 73.24688078 60 82 C59.6596875 83.11375 59.6596875 83.11375 59.3125 84.25 C59.1578125 85.11625 59.1578125 85.11625 59 86 C59.66 86.66 60.32 87.32 61 88 C60.90532495 91.59765179 60.2283716 92.77763818 57.625 95.3125 C55 97 55 97 52 97 C51.67 97.99 51.34 98.98 51 100 C48.525 100.495 48.525 100.495 46 101 C45.62875 102.794375 45.62875 102.794375 45.25 104.625 C43.50904496 111.3861062 40.26360328 115.21181802 34.48828125 118.921875 C26.66529692 122.31142551 18.55814186 122.33213491 10.1796875 122.37109375 C8.96282257 122.38012222 7.74595764 122.3891507 6.49221802 122.39845276 C3.92550089 122.41290645 1.35874733 122.42182979 -1.20800781 122.42553711 C-5.09244448 122.43740057 -8.97527428 122.48661212 -12.859375 122.53710938 C-25.85645687 122.62219939 -37.06639617 122.46853682 -49 117 C-50.4856232 116.42794448 -51.97349579 115.86164806 -53.46484375 115.3046875 C-55.24789146 114.57060936 -57.03092599 113.83649901 -58.8137207 113.10180664 C-62.07695804 111.76366924 -65.33675745 110.53579895 -68.6875 109.4375 C-73.6242196 107.29514998 -75.28564852 104.78587871 -77.25 99.875 C-78.39145845 93.97746467 -78.91988776 87.75966328 -77 82 C-77.82242188 81.79117188 -78.64484375 81.58234375 -79.4921875 81.3671875 C-83.9787981 79.61850853 -87.33827669 77.05461711 -91.125 74.125 C-91.82753906 73.59519531 -92.53007813 73.06539063 -93.25390625 72.51953125 C-101.09039876 66.54957571 -101.09039876 66.54957571 -103 64 C-103.16015625 61.55078125 -103.16015625 61.55078125 -102 59 C-99.82129607 57.18007335 -97.81229742 55.69145495 -95.4375 54.1875 C-94.82197266 53.78080078 -94.20644531 53.37410156 -93.57226562 52.95507812 C-92.05694751 51.9566127 -90.52958612 50.97646735 -89 50 C-89.65226562 49.69707031 -90.30453125 49.39414062 -90.9765625 49.08203125 C-98.90095842 45.28346388 -104.43201225 41.78249764 -109 34 C-110.47510842 29.57467473 -110.93599052 26.04812687 -108.94140625 21.68359375 C-105.12589385 15.40712756 -100.99046781 12.46662663 -94.01953125 10.41796875 C-87.21746575 9.01019117 -80.61299684 10.24904103 -74 12 C-74 12.66 -74 13.32 -74 14 C-74.89203125 14.31453125 -75.7840625 14.6290625 -76.703125 14.953125 C-77.87359375 15.38109375 -79.0440625 15.8090625 -80.25 16.25 C-81.41015625 16.66765625 -82.5703125 17.0853125 -83.765625 17.515625 C-86.98125189 18.9913958 -88.81267108 20.24418212 -91 23 C-91.16210219 25.60648505 -91.16210219 25.60648505 -90 28 C-81.54440497 35.41261414 -67.67836821 35.00147272 -57 36 C-56.90203125 35.17757812 -56.8040625 34.35515625 -56.703125 33.5078125 C-55.31773851 23.16518575 -53.82439895 14.15476286 -45.27734375 7.40625 C-39.42710794 3.79375447 -32.82802942 2.28126006 -26 3 C-23.18939194 3.78095043 -20.41439501 4.61179308 -17.6484375 5.5390625 C-14.45571103 6.09472876 -12.85580003 5.43305489 -10 4 C-10 4.66 -10 5.32 -10 6 C-5.23872375 4.26074901 -5.23872375 4.26074901 -1.3125 1.25 C-0.879375 0.8375 -0.44625 0.425 0 0 Z M-1.75 3.4375 C-4.42682364 5.70893929 -6.4026906 6.80014948 -10 7 C-10.99 6.505 -10.99 6.505 -12 6 C-12.99 6.99 -13.98 7.98 -15 9 C-15.51046875 8.7834375 -16.0209375 8.566875 -16.546875 8.34375 C-24.18490924 5.4185454 -32.67202287 4.14550058 -40.375 7.5625 C-47.88801827 12.03601918 -51.58296639 18.80044294 -54 27 C-54.87385024 30.7971622 -55.64254308 34.61673486 -56.42138672 38.43432617 C-57.66923612 44.24351299 -59.51838734 49.12003471 -63 54 C-62.34 54.66 -61.68 55.32 -61 56 C-62.134375 55.505 -63.26875 55.01 -64.4375 54.5 C-74.08043639 51.35159648 -84.81530376 51.37984547 -93.9375 55.875 C-96.67167931 57.43201545 -98.77775886 58.77775886 -101 61 C-100.78072388 63.48108596 -100.31141859 64.67704541 -98.57641602 66.47631836 C-97.97498779 66.92628174 -97.37355957 67.37624512 -96.75390625 67.83984375 C-96.08552734 68.34354492 -95.41714844 68.84724609 -94.72851562 69.36621094 C-93.65633789 70.14399902 -93.65633789 70.14399902 -92.5625 70.9375 C-91.84126953 71.47020508 -91.12003906 72.00291016 -90.37695312 72.55175781 C-85.19127783 76.3124151 -79.93805191 79.54484392 -74 82 C-74.99 82.495 -74.99 82.495 -76 83 C-76.4624779 91.20470055 -76.01758416 98.34713496 -70.625 104.875 C-66.86406343 107.9195677 -63.47606131 109.90328907 -58.88671875 111.39453125 C-55.76132636 112.41931206 -52.64381278 113.46064386 -49.53515625 114.53515625 C-48.42817383 114.91317383 -48.42817383 114.91317383 -47.29882812 115.29882812 C-45.810239 115.80715856 -44.32324003 116.32017007 -42.83789062 116.83789062 C-31.99015671 120.51685182 -21.83990296 121.30469389 -10.4375 121.1875 C-8.99959383 121.17794947 -7.56168691 121.16851003 -6.1237793 121.15917969 C-2.08206158 121.12696516 1.95871361 121.06723125 6 121 C7.45067871 120.97897217 7.45067871 120.97897217 8.93066406 120.95751953 C24.38948047 120.72036183 24.38948047 120.72036183 38.0625 114.35546875 C42.01911617 109.98987542 44 105.94605724 44 100 C39.42586117 97.63915415 35.0200168 97.17623848 30 98 C26.13953631 99.34038005 22.3987813 100.8742173 18.63671875 102.46484375 C9.90750454 106.14967854 1.58903504 108.42163019 -8 107 C-10 104 -10 104 -9.875 100.5 C-8.87611553 96.50446211 -8.36251194 96.08487355 -5 94 C-2.47484387 92.9508435 0.07758069 92.05726145 2.66015625 91.16015625 C5.32333534 89.83968181 6.42017172 88.48110737 8 86 C7.01 84.63875 7.01 84.63875 6 83.25 C4 80 4 80 4 76 C4.28875 77.134375 4.5775 78.26875 4.875 79.4375 C5.24625 80.613125 5.6175 81.78875 6 83 C6.66 83.33 7.32 83.66 8 84 C7.67 82.02 7.34 80.04 7 78 C10.78838178 76.73720607 14.08490322 76.26549819 18 77 C26.05479452 81.10958904 26.05479452 81.10958904 28 85 C26.97519531 84.96519531 25.95039063 84.93039063 24.89453125 84.89453125 C23.53387064 84.86637965 22.1731922 84.83908096 20.8125 84.8125 C20.13896484 84.78736328 19.46542969 84.76222656 18.77148438 84.73632812 C12.99700467 84.65182354 10.0356743 86.19697419 5.8125 89.9375 C2.46131759 92.39503377 -0.88974099 93.6091599 -4.79296875 94.97265625 C-7.31973176 95.91600063 -7.31973176 95.91600063 -9 99 C-9.35467042 101.83736337 -9.51547542 103.33225677 -7.73876953 105.63378906 C-4.54361644 108.14433058 -0.87159561 107.43480285 3 107 C6.04947767 106.30639331 8.93966874 105.32178108 11.875 104.25 C12.6580249 103.97921631 13.4410498 103.70843262 14.24780273 103.42944336 C17.63023427 102.25123029 20.96942249 101.0122963 24.29296875 99.67578125 C30.44783815 97.20168001 34.51869986 96.74260491 41 98 C42.68597242 98.20077229 44.37354451 98.38859819 46.0625 98.5625 C47.361875 98.706875 48.66125 98.85125 50 99 C50 98.34 50 97.68 50 97 C36.27355578 92.84496824 25.99980668 92.84975498 13.01953125 98.6875 C10 100 10 100 8 100 C20.37408692 94.71607617 29.26980979 91.23296089 42.62890625 94.54296875 C47.00611605 95.38668135 51.58675177 95.67283948 56 95 C57.88235062 93.75425093 57.88235062 93.75425093 59 92 C58.92466753 89.3727086 58.92466753 89.3727086 58 87 C57.34 86.67 56.68 86.34 56 86 C56 85.67 56 85.34 56 85 C49.565 84.505 49.565 84.505 43 84 C44.9101414 82.82268014 46.82837944 81.65848895 48.75 80.5 C49.81734375 79.8503125 50.8846875 79.200625 51.984375 78.53125 C55 77 55 77 59 77 C58.67 76.01 58.34 75.02 58 74 C57.01 74 56.02 74 55 74 C55.969375 73.690625 56.93875 73.38125 57.9375 73.0625 C63.39636422 70.75468749 67.01998908 66.24485453 71 62 C72.32875147 60.6621005 73.66063358 59.32727282 75 58 C70.66335081 54.88303339 67.19591612 54.44033187 62 54 C61.67 55.65 61.34 57.3 61 59 C62.65 59 64.3 59 66 59 C63.03 59.99 63.03 59.99 60 61 C60 61.70125 60 62.4025 60 63.125 C58.43091211 67.63612769 55.03095386 69.6473615 51 72 C45.60464864 73.67855376 39.61764606 73.0899623 34 73 C33.67 72.01 33.34 71.02 33 70 C32.17757812 69.97421875 31.35515625 69.9484375 30.5078125 69.921875 C23.71435832 69.57671105 18.20501328 68.72526367 12.0234375 65.83984375 C9.90333277 64.80832551 9.90333277 64.80832551 7 65 C5.3174387 66.31321858 3.65002828 67.64613064 2 69 C1.34 69 0.68 69 0 69 C0.969375 68.401875 1.93875 67.80375 2.9375 67.1875 C6.23052042 65.28872491 6.23052042 65.28872491 7 62 C6.03449219 62.32613281 5.06898437 62.65226562 4.07421875 62.98828125 C-0.36407846 64.25397235 -4.60106592 64.25934027 -9.1875 64.1875 C-9.98091797 64.18685547 -10.77433594 64.18621094 -11.59179688 64.18554688 C-15.25137694 64.15789262 -18.45829394 63.99358061 -22 63 C-21.80787977 52.87002437 -21.80787977 52.87002437 -18.5625 49.375 C-14.27530228 47.07455244 -10.88010502 46.31189614 -6 47 C-3.34316811 48.49748707 -1.15347249 49.84652751 1 52 C1.23287008 53.68183948 1.41264166 55.3712416 1.5625 57.0625 C1.68818359 58.44115234 1.68818359 58.44115234 1.81640625 59.84765625 C1.87699219 60.55792969 1.93757813 61.26820312 2 62 C2.70125 61.731875 3.4025 61.46375 4.125 61.1875 C7 61 7 61 9.9375 63.3125 C10.44925781 63.7765625 10.96101563 64.240625 11.48828125 64.71875 C16.90019329 69.30559018 24.35998041 68.19339863 31 68 C31.23074219 67.27554688 31.46148437 66.55109375 31.69921875 65.8046875 C33.67879787 59.93636996 35.30263351 55.15116108 40 51 C43.5625 49.875 43.5625 49.875 47 50 C49.3125 51.3125 49.3125 51.3125 51 54 C51.90479556 57.30379634 52.50859505 60.61189221 53 64 C57.49986167 62.08094135 59.1725784 59.43530451 61 55 C61.3384885 52.20526411 61.3384885 52.20526411 61 50 C61.72058594 49.91878906 62.44117188 49.83757813 63.18359375 49.75390625 C69.14395537 48.15841417 73.88274281 42.79068506 77.53515625 37.9765625 C80.41276801 32.92269238 80.94482829 27.70602184 80 22 C78.70333599 18.65533395 77.32955519 15.6647776 74 14 C72.45976004 13.93049459 70.91665012 13.91547643 69.375 13.9375 C68.55773437 13.94652344 67.74046875 13.95554687 66.8984375 13.96484375 C66.27195313 13.97644531 65.64546875 13.98804688 65 14 C66.175625 14.928125 66.175625 14.928125 67.375 15.875 C71.94244604 19.57245632 71.94244604 19.57245632 72.4375 23.25 C71.88028506 28.02612803 70.44529504 29.70450039 67 33 C63.47593069 35.0557071 59.80701533 36.54437649 56 38 C55.55269531 37.44570313 55.10539063 36.89140625 54.64453125 36.3203125 C50.26397899 30.76212733 50.26397899 30.76212733 44 28 C38.72066303 27.6480442 34.41996155 28.30051722 29.3125 29.55078125 C25.03524705 30.38166654 19.97866698 30.98933349 16 29 C15.7265625 27.25 15.7265625 27.25 15.625 25 C15.17406021 19.69933036 13.33794949 15.75131672 11 11 C8.03 11 5.06 11 2 11 C2.99 10.67 3.98 10.34 5 10 C5.33 8.35 5.66 6.7 6 5 C4.68 5.33 3.36 5.66 2 6 C2 4.35 2 2.7 2 1 C0.51226347 0.88944875 0.51226347 0.88944875 -1.75 3.4375 Z " fill="#120A06" transform="translate(110,0)"/>
<path d="M0 0 C0.33 0 0.66 0 1 0 C1 1.65 1 3.3 1 5 C2.32 4.67 3.64 4.34 5 4 C4.125 8.875 4.125 8.875 3 10 C5.31 10 7.62 10 10 10 C10.84378975 12.05824429 11.67463622 14.12179786 12.5 16.1875 C12.9640625 17.33605469 13.428125 18.48460938 13.90625 19.66796875 C14.90805652 22.71990077 15.23870804 24.83115072 15 28 C19.66387259 30.33193629 25.66725062 29.19831626 30.5625 28 C36.0261142 26.67692966 40.67463157 26.20937473 46.125 28.0625 C49.79424047 30.53524901 52.31058867 33.51902434 55 37 C64.46231951 33.36359643 64.46231951 33.36359643 71 26 C71.50031206 22.58428147 71.50031206 22.58428147 71 19 C68.71709187 16.62342275 68.71709187 16.62342275 66 15 C65.01 14.01 65.01 14.01 64 13 C71.98448519 12.21720733 71.98448519 12.21720733 76 15.3125 C79.63369979 20.1952841 79.72695626 25.11593052 79 31 C76.57229266 38.2002247 71.23947459 43.81185952 65 48 C62.21875 48.71875 62.21875 48.71875 60 49 C59.9071875 50.794375 59.9071875 50.794375 59.8125 52.625 C59.2314873 57.42689911 57.42657272 59.65700222 54 63 C53.34 63 52.68 63 52 63 C51.90203125 62.32453125 51.8040625 61.6490625 51.703125 60.953125 C51.03643749 56.97598916 50.47393774 53.75478973 48.3125 50.3125 C45.95141821 48.75432374 45.95141821 48.75432374 42.625 48.75 C37.53029889 50.50679349 35.55075119 53.36227057 33 58 C31.78741569 60.95396478 30.81444332 63.91368847 30 67 C22.17774821 67.47648234 15.7589107 67.29068854 9 63 C8.21882813 62.18015625 8.21882813 62.18015625 7.421875 61.34375 C6.95265625 60.9003125 6.4834375 60.456875 6 60 C3.34533951 60.23043864 3.34533951 60.23043864 1 61 C0.98582031 60.32453125 0.97164062 59.6490625 0.95703125 58.953125 C0.75485222 53.11675597 0.75485222 53.11675597 -2.4375 48.4375 C-6.704751 46.04367627 -10.10186964 45.30935453 -15 46 C-17.65683189 47.49748707 -19.84652751 48.84652751 -22 51 C-22.23363881 52.84891946 -22.41303635 54.70488031 -22.5625 56.5625 C-22.68818359 58.08037109 -22.68818359 58.08037109 -22.81640625 59.62890625 C-22.87699219 60.41136719 -22.93757813 61.19382813 -23 62 C-29.40941111 59.18524756 -33.68998089 55.85476252 -38.5 50.8125 C-39.13164063 50.17119141 -39.76328125 49.52988281 -40.4140625 48.86914062 C-45 44.169051 -45 44.169051 -45 43 C-44.20335938 42.80664062 -43.40671875 42.61328125 -42.5859375 42.4140625 C-41.52632813 42.15367188 -40.46671875 41.89328125 -39.375 41.625 C-38.33085938 41.36976562 -37.28671875 41.11453125 -36.2109375 40.8515625 C-33.02193455 40.0654447 -33.02193455 40.0654447 -30.125 38.90625 C-26.19767508 37.76732577 -22.68505919 37.77955557 -18.625 37.875 C-17.52091797 37.88853516 -17.52091797 37.88853516 -16.39453125 37.90234375 C-14.5962112 37.92569856 -12.79806089 37.96156164 -11 38 C-11.495 34.535 -11.495 34.535 -12 31 C-16.29782361 29.94644791 -20.47619661 29.85033381 -24.875 29.875 C-25.89787109 29.86919922 -25.89787109 29.86919922 -26.94140625 29.86328125 C-31.39055248 29.87175581 -35.60958055 30.27781612 -40 31 C-34.23483222 26.47022531 -30.25483632 25.40118811 -23 26 C-19.96069481 26.53256707 -16.98226145 27.21037049 -14 28 C-14.90922231 19.97984496 -16.52444605 13.76457772 -21 7 C-19.80890625 7.29390625 -19.80890625 7.29390625 -18.59375 7.59375 C-17.30984375 7.79484375 -17.30984375 7.79484375 -16 8 C-15.505 7.505 -15.01 7.01 -14.5 6.5 C-14.005 6.005 -13.51 5.51 -13 5 C-12.236875 5.185625 -11.47375 5.37125 -10.6875 5.5625 C-7.79130452 6.32251456 -7.79130452 6.32251456 -4.8125 4.1875 C-2.04780505 2.13049488 -2.04780505 2.13049488 0 0 Z " fill="#411D10" transform="translate(111,1)"/>
<path d="M0 0 C0.33 0 0.66 0 1 0 C1 1.65 1 3.3 1 5 C2.32 4.67 3.64 4.34 5 4 C4.125 8.875 4.125 8.875 3 10 C5.31 10 7.62 10 10 10 C10.84378975 12.05824429 11.67463622 14.12179786 12.5 16.1875 C12.9640625 17.33605469 13.428125 18.48460938 13.90625 19.66796875 C14.92265587 22.76437662 15.0111693 24.81116523 15 28 C16.62339805 29.70884005 18.29319053 31.37446717 20 33 C21.79173673 36.41283186 22.51708226 39.16301462 22 43 C19.91796875 44.80078125 19.91796875 44.80078125 17.1875 46.3125 C16.29417969 46.82425781 15.40085938 47.33601563 14.48046875 47.86328125 C12 49 12 49 9 49 C8.01 46.69 7.02 44.38 6 42 C5.01 42.33 4.02 42.66 3 43 C-0.06640625 42.43359375 -0.06640625 42.43359375 -3.5625 41.4375 C-4.71878906 41.12683594 -5.87507813 40.81617188 -7.06640625 40.49609375 C-10 39 -10 39 -11.40234375 35.97265625 C-12 33 -12 33 -12 31 C-16.29782361 29.94644791 -20.47619661 29.85033381 -24.875 29.875 C-25.89787109 29.86919922 -25.89787109 29.86919922 -26.94140625 29.86328125 C-31.39055248 29.87175581 -35.60958055 30.27781612 -40 31 C-34.23483222 26.47022531 -30.25483632 25.40118811 -23 26 C-19.96069481 26.53256707 -16.98226145 27.21037049 -14 28 C-14.90922231 19.97984496 -16.52444605 13.76457772 -21 7 C-19.80890625 7.29390625 -19.80890625 7.29390625 -18.59375 7.59375 C-17.30984375 7.79484375 -17.30984375 7.79484375 -16 8 C-15.505 7.505 -15.01 7.01 -14.5 6.5 C-14.005 6.005 -13.51 5.51 -13 5 C-12.236875 5.185625 -11.47375 5.37125 -10.6875 5.5625 C-7.79130452 6.32251456 -7.79130452 6.32251456 -4.8125 4.1875 C-2.04780505 2.13049488 -2.04780505 2.13049488 0 0 Z " fill="#4B4949" transform="translate(111,1)"/>
<path d="M0 0 C-0.33 0.66 -0.66 1.32 -1 2 C-1.721875 2.12375 -2.44375 2.2475 -3.1875 2.375 C-6.7609465 3.16909922 -9.02088276 4.90827939 -12 7 C-13.98 7.99 -13.98 7.99 -16 9 C-11.71 9.33 -7.42 9.66 -3 10 C-3 10.66 -3 11.32 -3 12 C-2.01 12.33 -1.02 12.66 0 13 C-0.75 17.75 -0.75 17.75 -3 20 C-8.2375416 20.60880825 -13.45470708 20.27694823 -18.5625 19 C-30.81935913 16.09705968 -39.77331644 20.20603491 -51 25 C-49.5773024 24.53768001 -48.15562551 24.07221839 -46.734375 23.60546875 C-45.94256836 23.34660889 -45.15076172 23.08774902 -44.33496094 22.82104492 C-42.24138873 22.08487979 -40.26136173 21.24548104 -38.25 20.3125 C-28.74215922 16.74705971 -18.3690445 19.16396491 -9 22 C-9 22.66 -9 23.32 -9 24 C-18 23 -18 23 -19.99291992 22.62744141 C-26.30638095 21.59371481 -30.60406752 22.81673052 -36.4375 25.25 C-38.11002188 25.90402177 -39.78319324 26.55638524 -41.45703125 27.20703125 C-42.2454541 27.51979004 -43.03387695 27.83254883 -43.84619141 28.15478516 C-50.49011001 30.76204498 -57.76647531 33.50883337 -65 32 C-66.7421875 30.69140625 -66.7421875 30.69140625 -68 29 C-68.1875 25.5625 -68.1875 25.5625 -67 22 C-64.54368565 20.16817235 -61.82317936 19.15334148 -59 18 C-55.23912114 16.05650836 -51.93595275 14.08275039 -49 11 C-45.38132441 9.7937748 -42.07493749 9.89183082 -38.3125 9.9375 C-37.61060547 9.94201172 -36.90871094 9.94652344 -36.18554688 9.95117188 C-34.45699462 9.96293073 -32.72848635 9.98086546 -31 10 C-36.99514648 3.68415024 -36.99514648 3.68415024 -45.125 1.75 C-48.91198773 1.82927741 -48.91198773 1.82927741 -52 3 C-51.67 4.98 -51.34 6.96 -51 9 C-52.5 7.875 -52.5 7.875 -54 6 C-54.06012319 4.0009039 -54.06500629 1.99894327 -54 0 C-50.70835283 -0.02952761 -47.41674062 -0.04697292 -44.125 -0.0625 C-42.74828125 -0.07506836 -42.74828125 -0.07506836 -41.34375 -0.08789062 C-35.93346843 -0.10694091 -30.66669343 0.16894653 -25.29052734 0.76635742 C-22.1071348 1.09107568 -18.94865813 1.16924282 -15.75 1.1875 C-14.04070312 1.20876953 -14.04070312 1.20876953 -12.296875 1.23046875 C-7.6959903 0.90884292 -4.42838946 -1.47612982 0 0 Z " fill="#F5D9B6" transform="translate(169,75)"/>
<path d="M0 0 C0.74507812 0.00451172 1.49015625 0.00902344 2.2578125 0.01367188 C4.0885764 0.02540754 5.91929873 0.0433415 7.75 0.0625 C7.75 0.7225 7.75 1.3825 7.75 2.0625 C7.16992188 2.22105469 6.58984375 2.37960938 5.9921875 2.54296875 C0.52094302 4.17711933 -3.37460129 5.7896245 -7.25 10.0625 C-8.41666667 13.0625 -8.41666667 13.0625 -7.25 16.0625 C1.9589607 25.06850839 16.77455417 24.65536292 28.75 25.0625 C27.74586692 31.67179383 25.96048225 35.85479827 21.75 41.0625 C20.44675781 40.83240234 20.44675781 40.83240234 19.1171875 40.59765625 C17.04844865 40.26886597 14.96935069 39.99336893 12.8828125 39.80859375 C1.39222598 38.62968942 -10.01039832 33.97795333 -18.1875 25.625 C-21.01163331 21.98681495 -22.44570842 18.83050587 -22.55078125 14.19921875 C-21.80751377 8.91912377 -19.35389604 5.9364177 -15.25 2.6875 C-10.16454662 -0.06712058 -5.70492949 -0.06551597 0 0 Z " fill="#F7F1E1" transform="translate(24.25,11.9375)"/>
<path d="M0 0 C3.14344435 1.74635797 5.46862726 3.46862726 8 6 C8.1953125 8.3828125 8.1953125 8.3828125 8.125 11.125 C8.10695313 12.03507812 8.08890625 12.94515625 8.0703125 13.8828125 C8.04710938 14.58148438 8.02390625 15.28015625 8 16 C9.65 15.34 11.3 14.68 13 14 C13.86625 14.78375 14.7325 15.5675 15.625 16.375 C21.95589683 21.56281824 29.11262478 21.51501576 37 22 C37.07476562 21.443125 37.14953125 20.88625 37.2265625 20.3125 C38.31365076 14.00312499 40.60380251 9.66466756 45 5 C48.27057143 2.81961905 49.20519469 2.36753245 53 3 C55.92000834 5.0572786 57.65511332 6.67242251 58.5703125 10.1953125 C59.05604669 13.96909353 59.40655488 17.39932654 58 21 C51.6605464 24.44446907 44.03694663 24.49170617 37 24.4375 C35.61941406 24.4674707 35.61941406 24.4674707 34.2109375 24.49804688 C28.16574357 24.4937897 23.58356047 23.39899068 18.09375 20.85961914 C15.91469002 19.81009991 15.91469002 19.81009991 13 20 C11.31295807 21.30745749 9.64639965 22.64172029 8 24 C4.94080612 25.01973129 2.87581975 25.11533602 -0.32421875 25.09765625 C-1.35224609 25.09443359 -2.38027344 25.09121094 -3.43945312 25.08789062 C-4.51130859 25.07951172 -5.58316406 25.07113281 -6.6875 25.0625 C-7.77095703 25.05798828 -8.85441406 25.05347656 -9.97070312 25.04882812 C-12.64719085 25.03703743 -15.32356777 25.02058063 -18 25 C-18 24.67 -18 24.34 -18 24 C-17.15405273 23.97812622 -17.15405273 23.97812622 -16.29101562 23.95581055 C-13.69338054 23.88055146 -11.09692357 23.78415516 -8.5 23.6875 C-7.613125 23.66494141 -6.72625 23.64238281 -5.8125 23.61914062 C0.06924814 23.38127581 4.63437034 22.4652893 10 20 C11.99416403 17.99040438 11.99416403 17.99040438 13 16 C12.03449219 16.48855469 11.06898437 16.97710937 10.07421875 17.48046875 C5.63790917 19.37759686 1.57877716 19.41073325 -3.1875 19.3125 C-4.37762695 19.31733398 -4.37762695 19.31733398 -5.59179688 19.32226562 C-12.66403468 19.25694689 -12.66403468 19.25694689 -16 17 C-16.91643096 7.30959115 -16.91643096 7.30959115 -14.734375 4.19140625 C-10.06908272 0.37537834 -5.94863868 -0.82927119 0 0 Z " fill="#1C1614" transform="translate(104,46)"/>
<path d="M0 0 C2.10597638 0.61887466 4.20972971 1.24531797 6.3125 1.875 C7.48425781 2.22304688 8.65601563 2.57109375 9.86328125 2.9296875 C13 4 13 4 16 6 C14.58911589 9.30653354 12.94468631 11.1547817 10.1875 13.4375 C3.63117526 19.00441573 0.42908069 22.24688078 -1 31 C-1.226875 31.7425 -1.45375 32.485 -1.6875 33.25 C-1.790625 33.8275 -1.89375 34.405 -2 35 C-1.34 35.66 -0.68 36.32 0 37 C-0.09467505 40.59765179 -0.7716284 41.77763818 -3.375 44.3125 C-6 46 -6 46 -9 46 C-9.33 46.99 -9.66 47.98 -10 49 C-11.98 49 -13.96 49 -16 49 C-16.495 49.99 -16.495 49.99 -17 51 C-17 50.34 -17 49.68 -17 49 C-26.70187148 46.49629123 -33.49737335 48.71738669 -42.36328125 52.46484375 C-50.96058574 56.09399591 -59.55891054 58.68165268 -69 57 C-70.87890625 55.19140625 -70.87890625 55.19140625 -72 53 C-72 49.00084197 -71.74302297 46.8388969 -69.0625 43.8125 C-65.56545167 41.74281834 -62.03662708 40.3651186 -58.20703125 39.02734375 C-55.68026824 38.08399937 -55.68026824 38.08399937 -54 35 C-54.680625 34.113125 -55.36125 33.22625 -56.0625 32.3125 C-58 29 -58 29 -57.75 26.125 C-57.37875 25.073125 -57.37875 25.073125 -57 24 C-56.67 24 -56.34 24 -56 24 C-55.34 26.31 -54.68 28.62 -54 31 C-54 29.68 -54 28.36 -54 27 C-50.87674219 24.91782813 -48.99184853 24.46700309 -45.26953125 24.54296875 C-40.90336124 25.42221469 -37.27422231 28.0553493 -34 31 C-33.505 32.485 -33.505 32.485 -33 34 C-34.53720703 34.05607422 -34.53720703 34.05607422 -36.10546875 34.11328125 C-37.46618062 34.17897079 -38.82685611 34.24541709 -40.1875 34.3125 C-40.86103516 34.33505859 -41.53457031 34.35761719 -42.22851562 34.38085938 C-47.86683781 34.68340349 -51.03150326 36.25647432 -55.1875 39.9375 C-59.12488152 42.82491311 -63.43682077 44.33421807 -68 46 C-68.67673447 49.40320934 -68.67673447 49.40320934 -69 53 C-66.6431527 55.3568473 -66.13500741 55.28981949 -62.9296875 55.296875 C-57.95568859 55.18152437 -53.76772441 53.94520363 -49.125 52.25 C-47.95046265 51.84382446 -47.95046265 51.84382446 -46.75219727 51.42944336 C-43.36976573 50.25123029 -40.03057751 49.0122963 -36.70703125 47.67578125 C-30.61861082 45.22839081 -26.41981886 44.56205115 -20 46 C-19.15566406 46.17402344 -18.31132812 46.34804687 -17.44140625 46.52734375 C-15.28564064 46.98809241 -13.14173936 47.478489 -11 48 C-11 47.34 -11 46.68 -11 46 C-12.2375 45.855625 -13.475 45.71125 -14.75 45.5625 C-16.85746312 45.3166293 -18.85115842 45.03973184 -20.90234375 44.4921875 C-30.68993722 42.19565719 -38.60732162 44.5364199 -47.39453125 48.58984375 C-51.41701865 50.16310263 -54.71840608 50.62789228 -59 51 C-56.58220426 48.58220426 -54.75333563 48.13957116 -51.5 47.125 C-47.50424348 45.85665724 -43.69953881 44.46193642 -39.875 42.75 C-32.49855529 39.75221287 -25.90732222 40.66379445 -18.375 42.546875 C-13.99020684 43.38344738 -9.43380225 43.51538214 -5 43 C-4.01 42.01 -4.01 42.01 -3 41 C-3 39.68 -3 38.36 -3 37 C-3.99 37 -4.98 37 -6 37 C-6 36.34 -6 35.68 -6 35 C-6.85464844 34.95101562 -7.70929688 34.90203125 -8.58984375 34.8515625 C-9.69457031 34.77679688 -10.79929688 34.70203125 -11.9375 34.625 C-13.03964844 34.55539063 -14.14179688 34.48578125 -15.27734375 34.4140625 C-16.17582031 34.27742188 -17.07429688 34.14078125 -18 34 C-18.33 33.34 -18.66 32.68 -19 32 C-18.31292969 31.66226563 -17.62585938 31.32453125 -16.91796875 30.9765625 C-16.01691406 30.53054687 -15.11585938 30.08453125 -14.1875 29.625 C-13.29417969 29.18414062 -12.40085938 28.74328125 -11.48046875 28.2890625 C-8.85443619 26.98133095 -8.85443619 26.98133095 -6 25 C-5.01 24.67 -4.02 24.34 -3 24 C-3.680625 24.165 -4.36125 24.33 -5.0625 24.5 C-8.4164822 25.07089059 -11.60389805 25.06659023 -15 25 C-15 24.67 -15 24.34 -15 24 C-14.03320312 23.82726562 -13.06640625 23.65453125 -12.0703125 23.4765625 C-2.06640097 21.41579791 3.31840694 18.00454849 10 10 C10.98790676 8.98805127 11.98244626 7.98213257 13 7 C12.07767578 6.69255859 12.07767578 6.69255859 11.13671875 6.37890625 C7.7578125 5.25260417 4.37890625 4.12630208 1 3 C0.67 4.65 0.34 6.3 0 8 C4.455 7.505 4.455 7.505 9 7 C5.39338934 8.80330533 2.91606575 9.46599103 -1 10 C-0.505 11.98 -0.505 11.98 0 14 C-7.13701857 21.09905571 -12.03527823 23.06120537 -22 23.125 C-23.66688588 23.09329293 -25.33372448 23.05513412 -27 23 C-27.495 21.02 -27.495 21.02 -28 19 C-27.13117188 18.87882812 -26.26234375 18.75765625 -25.3671875 18.6328125 C-24.21476562 18.46523437 -23.06234375 18.29765625 -21.875 18.125 C-20.16957031 17.88136719 -20.16957031 17.88136719 -18.4296875 17.6328125 C-15.10051461 17.01854598 -12.11795203 16.32304789 -9 15 C-8.67 14.01 -8.34 13.02 -8 12 C-7.38125 11.731875 -6.7625 11.46375 -6.125 11.1875 C-3.03229548 9.45922395 -2.34653336 7.20603182 -1 4 C-0.64778957 2.67152843 -0.31009804 1.33892797 0 0 Z " fill="#2C2218" transform="translate(171,51)"/>
<path d="M0 0 C0.639375 0.33 1.27875 0.66 1.9375 1 C1.40648463 7.63769218 -0.5953995 11.38337825 -5.125 16.1875 C-14.16925791 21.76799956 -24.46469224 21.38318792 -34.75 21.1875 C-36.14516768 21.17241097 -37.54035134 21.15873009 -38.93554688 21.14648438 C-42.31161584 21.11143868 -45.68684276 21.06230508 -49.0625 21 C-48.381875 20.113125 -47.70125 19.22625 -47 18.3125 C-44.76425667 15.22201073 -44.76425667 15.22201073 -45.3125 12.125 C-45.56 11.42375 -45.8075 10.7225 -46.0625 10 C-44.86496094 9.70867187 -43.66742188 9.41734375 -42.43359375 9.1171875 C-34.3648197 7.10124302 -26.58109223 4.99525336 -18.9375 1.6875 C-12.11296243 -1.17321672 -7.21664095 -2.35645419 0 0 Z " fill="#FAFAFA" transform="translate(152.0625,99)"/>
<path d="M0 0 C1.875 1.875 1.875 1.875 2.9375 4.625 C2.84957599 9.19704844 1.5285456 11.14569268 -1.125 14.875 C-3.26953125 16.078125 -3.26953125 16.078125 -5.125 16.875 C-5.22296875 16.19953125 -5.3209375 15.5240625 -5.421875 14.828125 C-6.08856251 10.85098916 -6.65106226 7.62978973 -8.8125 4.1875 C-11.17358179 2.62932374 -11.17358179 2.62932374 -14.5 2.625 C-19.59470111 4.38179349 -21.57424881 7.23727057 -24.125 11.875 C-25.33758431 14.82896478 -26.31055668 17.78868847 -27.125 20.875 C-34.92663257 21.35022635 -41.41234435 21.23233788 -48.125 16.875 C-50.1875 14.625 -50.1875 14.625 -51.125 12.875 C-50.465 11.885 -49.805 10.895 -49.125 9.875 C-48.74000109 8.21950469 -48.39706865 6.5527567 -48.125 4.875 C-47.38378906 4.93300781 -46.64257812 4.99101563 -45.87890625 5.05078125 C-35.81928452 5.481732 -27.59557225 2.96433105 -18.125 -0.125 C-12.18355178 -1.74175406 -5.83555578 -2.10080008 0 0 Z " fill="#F8F8F8" transform="translate(168.125,47.125)"/>
<path d="M0 0 C0.05447047 1.41623216 0.09300508 2.83308191 0.125 4.25 C0.14820313 5.03890625 0.17140625 5.8278125 0.1953125 6.640625 C-0.02168845 9.26199647 -0.57220333 10.80042134 -2 13 C-4.625 14.25 -4.625 14.25 -7 15 C-7.01417969 14.32453125 -7.02835938 13.6490625 -7.04296875 12.953125 C-7.24514778 7.11675597 -7.24514778 7.11675597 -10.4375 2.4375 C-14.71134505 0.03997717 -18.09585161 -0.67454829 -23 0 C-26.75212276 2.01502889 -28.63644095 3.45466142 -31 7 C-31.39387788 9.32387947 -31.73486085 11.65793749 -32 14 C-39.31493362 10.58636431 -44.62090993 4.88489962 -50 -1 C-50 -1.33 -50 -1.66 -50 -2 C-31.77119417 -7.24031379 -17.55384619 -9.39615387 0 0 Z " fill="#F7F7F5" transform="translate(119,47)"/>
<path d="M0 0 C3.16648655 -0.08820927 6.33265092 -0.1407905 9.5 -0.1875 C10.386875 -0.21263672 11.27375 -0.23777344 12.1875 -0.26367188 C19.17462629 -0.34073577 24.98599409 0.43809497 30.5 5.125 C32.58418995 9.11969741 32.34640501 12.5833361 32 17 C24.26940505 18.35709504 16.85546636 19.31918373 9 19 C8.80664062 18.28714844 8.61328125 17.57429688 8.4140625 16.83984375 C6.97587225 11.54986672 5.52147368 6.26663967 4 1 C2.68 0.67 1.36 0.34 0 0 Z " fill="#D06517" transform="translate(117,10)"/>
<path d="M0 0 C1.89492187 0.01353516 1.89492187 0.01353516 3.828125 0.02734375 C4.79234375 0.03894531 5.7565625 0.05054687 6.75 0.0625 C7.42934107 1.28470737 8.09291523 2.51568451 8.75 3.75 C9.12125 4.43449219 9.4925 5.11898437 9.875 5.82421875 C10.93103986 8.52560643 11.25139964 10.19210206 10.75 13.0625 C8.66796875 14.86328125 8.66796875 14.86328125 5.9375 16.375 C5.04417969 16.88675781 4.15085937 17.39851563 3.23046875 17.92578125 C0.75 19.0625 0.75 19.0625 -2.25 19.0625 C-3.735 15.5975 -3.735 15.5975 -5.25 12.0625 C-6.24 12.3925 -7.23 12.7225 -8.25 13.0625 C-11.31640625 12.49609375 -11.31640625 12.49609375 -14.8125 11.5 C-15.96878906 11.18933594 -17.12507813 10.87867188 -18.31640625 10.55859375 C-21.25 9.0625 -21.25 9.0625 -22.65234375 6.03515625 C-23.25 3.0625 -23.25 3.0625 -23.25 1.0625 C-21.4782281 1.12266203 -19.70741321 1.21149328 -17.9375 1.3125 C-16.45830078 1.38210937 -16.45830078 1.38210937 -14.94921875 1.453125 C-12.25 2.0625 -12.25 2.0625 -10.39453125 4.109375 C-10.01683594 4.75390625 -9.63914062 5.3984375 -9.25 6.0625 C-9.91 4.4125 -10.57 2.7625 -11.25 1.0625 C-7.49600202 -0.1414337 -3.91782588 -0.03627617 0 0 Z " fill="#FAF7F5" transform="translate(122.25,30.9375)"/>
<path d="M0 0 C2.08139641 1.91509927 3.38783151 3.60617406 5 6 C4.62890625 8.19140625 4.62890625 8.19140625 4 10 C2.02580078 10.07347656 2.02580078 10.07347656 0.01171875 10.1484375 C-13.5937297 10.70694319 -13.5937297 10.70694319 -27 13 C-27.20496094 12.31292969 -27.40992188 11.62585937 -27.62109375 10.91796875 C-27.89050781 10.01691406 -28.15992188 9.11585937 -28.4375 8.1875 C-28.83775391 6.84751953 -28.83775391 6.84751953 -29.24609375 5.48046875 C-29.80387873 3.64526945 -30.39344575 1.81966274 -31 0 C-28.3347536 -0.50881977 -25.66821581 -1.00720141 -23 -1.5 C-21.88431641 -1.71462891 -21.88431641 -1.71462891 -20.74609375 -1.93359375 C-13.39120511 -3.27666037 -6.54151145 -4.36100764 0 0 Z " fill="#CD6518" transform="translate(160,31)"/>
<path d="M0 0 C7.98448519 -0.78279267 7.98448519 -0.78279267 12 2.3125 C15.63369979 7.1952841 15.72695626 12.11593052 15 18 C12.57229266 25.2002247 7.23947459 30.81185952 1 35 C-1.78125 35.71875 -1.78125 35.71875 -4 36 C-7.28571429 27.57142857 -7.28571429 27.57142857 -8 23 C-6.80375 22.608125 -5.6075 22.21625 -4.375 21.8125 C0.27892659 20.07657712 4.69798954 17.60402092 7 13 C7.50031206 9.58428147 7.50031206 9.58428147 7 6 C4.71709187 3.62342275 4.71709187 3.62342275 2 2 C1.34 1.34 0.68 0.68 0 0 Z " fill="#F1EEDF" transform="translate(175,14)"/>
<path d="M0 0 C2.92000834 2.0572786 4.65511332 3.67242251 5.5703125 7.1953125 C6.50981641 14.49453517 6.50981641 14.49453517 5 18 C-0.69727303 21.02950232 -7.64955425 21.71168789 -14 21 C-14.66 20.67 -15.32 20.34 -16 20 C-15.12174442 12.61053929 -13.2151028 7.41415253 -8 2 C-4.72942857 -0.18038095 -3.79480531 -0.63246755 0 0 Z " fill="#171413" transform="translate(157,49)"/>
<path d="M0 0 C0.33 0 0.66 0 1 0 C1.66 2.31 2.32 4.62 3 7 C3 5.68 3 4.36 3 3 C6.12325781 0.91782813 8.00815147 0.46700309 11.73046875 0.54296875 C16.09663876 1.42221469 19.72577769 4.0553493 23 7 C23.495 8.485 23.495 8.485 24 10 C22.46279297 10.05607422 22.46279297 10.05607422 20.89453125 10.11328125 C19.53381938 10.17897079 18.17314389 10.24541709 16.8125 10.3125 C16.13896484 10.33505859 15.46542969 10.35761719 14.77148438 10.38085938 C9.13316219 10.68340349 5.96849674 12.25647432 1.8125 15.9375 C-2.12488152 18.82491311 -6.43682077 20.33421807 -11 22 C-11.67673447 25.40320934 -11.67673447 25.40320934 -12 29 C-9.6431527 31.3568473 -9.13500741 31.28981949 -5.9296875 31.296875 C-0.95568859 31.18152437 3.23227559 29.94520363 7.875 28.25 C8.6580249 27.97921631 9.4410498 27.70843262 10.24780273 27.42944336 C13.63023427 26.25123029 16.96942249 25.0122963 20.29296875 23.67578125 C26.35606147 21.23857191 30.60199818 20.52264322 37 22 C38.15628906 22.26103516 38.15628906 22.26103516 39.3359375 22.52734375 C41.23271217 22.98323521 43.11794603 23.48671255 45 24 C44.360625 24.12375 43.72125 24.2475 43.0625 24.375 C42.381875 24.58125 41.70125 24.7875 41 25 C40.67 25.66 40.34 26.32 40 27 C40 26.34 40 25.68 40 25 C30.29812852 22.49629123 23.50262665 24.71738669 14.63671875 28.46484375 C6.03941426 32.09399591 -2.55891054 34.68165268 -12 33 C-13.87890625 31.19140625 -13.87890625 31.19140625 -15 29 C-15 25.00084197 -14.74302297 22.8388969 -12.0625 19.8125 C-8.56545167 17.74281834 -5.03662708 16.3651186 -1.20703125 15.02734375 C1.31973176 14.08399937 1.31973176 14.08399937 3 11 C1.9790625 9.6696875 1.9790625 9.6696875 0.9375 8.3125 C-1 5 -1 5 -0.75 2.125 C-0.5025 1.42375 -0.255 0.7225 0 0 Z " fill="#2C130A" transform="translate(114,75)"/>
<path d="M0 0 C0.84378975 2.05824429 1.67463622 4.12179786 2.5 6.1875 C2.9640625 7.33605469 3.428125 8.48460937 3.90625 9.66796875 C5 13 5 13 5 18 C0.05 18.66 -4.9 19.32 -10 20 C-12.66666667 14.66666667 -15.33333333 9.33333333 -18 4 C-6.66287016 -0.59225513 -6.66287016 -0.59225513 0 0 Z " fill="#FBF8F5" transform="translate(121,11)"/>
<path d="M0 0 C1.79398884 0.25499841 3.58520875 0.52953814 5.375 0.8125 C6.87160156 1.03873047 6.87160156 1.03873047 8.3984375 1.26953125 C11 2 11 2 13 5 C11.08539961 6.77311263 9.16842507 8.54353362 7.25 10.3125 C6.71117187 10.81201172 6.17234375 11.31152344 5.6171875 11.82617188 C1.40039362 15.7087077 -2.173815 18.96544287 -7.75 20.6875 C-8.54921875 20.93886719 -9.3484375 21.19023438 -10.171875 21.44921875 C-10.77515625 21.63097656 -11.3784375 21.81273438 -12 22 C-12 22.33 -12 22.66 -12 23 C-22.18212717 23.14394525 -32.22466259 22.71205286 -42.375 22 C-43.80465854 21.90321712 -45.23434604 21.80686097 -46.6640625 21.7109375 C-50.10972106 21.478851 -53.55495773 21.24108243 -57 21 C-54.55034008 18.55034008 -53.19033087 18.74245751 -49.84350586 18.72265625 C-49.13202393 18.73167969 -48.42054199 18.74070312 -47.6875 18.75 C-46.95217041 18.75386719 -46.21684082 18.75773437 -45.45922852 18.76171875 C-35.93208527 18.90425471 -26.46292576 19.95212485 -17 21 C-17 20.34 -17 19.68 -17 19 C-15.824375 18.79375 -14.64875 18.5875 -13.4375 18.375 C-8.7441984 17.20376609 -4.96382357 14.87149454 -2 11 C-2 9.68 -2 8.36 -2 7 C-0.68 6.34 0.64 5.68 2 5 C1.01 5 0.02 5 -1 5 C-0.67 3.35 -0.34 1.7 0 0 Z " fill="#946239" transform="translate(172,54)"/>
<path d="M0 0 C2.10597638 0.61887466 4.20972971 1.24531797 6.3125 1.875 C7.48425781 2.22304688 8.65601563 2.57109375 9.86328125 2.9296875 C13 4 13 4 16 6 C14.58911589 9.30653354 12.94468631 11.1547817 10.1875 13.4375 C6.9595887 16.16564361 3.94106875 18.96702285 1 22 C0.01 21.67 -0.98 21.34 -2 21 C2.97281557 16.63425542 7.96836982 12.29785078 13 8 C12.15570324 5.72573954 12.15570324 5.72573954 9.49609375 5.1484375 C8.48675781 4.89320312 7.47742188 4.63796875 6.4375 4.375 C5.42558594 4.11460938 4.41367188 3.85421875 3.37109375 3.5859375 C2.58863281 3.39257812 1.80617187 3.19921875 1 3 C0.67 4.65 0.34 6.3 0 8 C4.455 7.505 4.455 7.505 9 7 C5.39338934 8.80330533 2.91606575 9.46599103 -1 10 C-0.67 11.32 -0.34 12.64 0 14 C-7.13701857 21.09905571 -12.03527823 23.06120537 -22 23.125 C-23.66688588 23.09329293 -25.33372448 23.05513412 -27 23 C-27.33 21.68 -27.66 20.36 -28 19 C-27.13117188 18.87882812 -26.26234375 18.75765625 -25.3671875 18.6328125 C-24.21476563 18.46523437 -23.06234375 18.29765625 -21.875 18.125 C-20.16957031 17.88136719 -20.16957031 17.88136719 -18.4296875 17.6328125 C-15.10051461 17.01854598 -12.11795203 16.32304789 -9 15 C-8.67 14.01 -8.34 13.02 -8 12 C-7.38125 11.731875 -6.7625 11.46375 -6.125 11.1875 C-3.03229548 9.45922395 -2.34653336 7.20603182 -1 4 C-0.64778957 2.67152843 -0.31009804 1.33892797 0 0 Z " fill="#401808" transform="translate(171,51)"/>
<path d="M0 0 C7.44571101 1.95006717 11.32279989 5.60539839 15.3125 11.9375 C17.41660313 15.6128133 18.77356318 18.69770044 19 23 C17.7625 23.020625 16.525 23.04125 15.25 23.0625 C14.55390625 23.07410156 13.8578125 23.08570312 13.140625 23.09765625 C10.96707597 22.99849799 9.08693463 22.59693851 7 22 C6.87044922 20.74896484 6.87044922 20.74896484 6.73828125 19.47265625 C5.80059107 11.96253215 4.25623785 6.28688568 0 0 Z " fill="#F8F5F0" transform="translate(90,8)"/>
<path d="M0 0 C0 0.66 0 1.32 0 2 C-9 1 -9 1 -10.98413086 0.62524414 C-17.36900546 -0.42828467 -21.78204652 0.86412835 -27.6875 3.3125 C-29.31619412 3.95496511 -30.94509569 4.59690459 -32.57421875 5.23828125 C-33.33831055 5.5434668 -34.10240234 5.84865234 -34.88964844 6.16308594 C-39.53586085 8.00566069 -43.34772692 9.26087225 -48.375 9.125 C-49.24898438 9.10695313 -50.12296875 9.08890625 -51.0234375 9.0703125 C-51.67570312 9.04710938 -52.32796875 9.02390625 -53 9 C-49.40181262 5.80752321 -46.43936739 4.26238526 -41.8125 3 C-37.68986146 1.83400122 -33.8820231 0.55441008 -30 -1.25 C-20.14735688 -5.28352542 -9.83676117 -2.97761419 0 0 Z " fill="#EEDDBD" transform="translate(160,97)"/>
<path d="M0 0 C0.71542969 0.34933594 1.43085937 0.69867188 2.16796875 1.05859375 C9.85941257 4.57098659 16.5658561 5.85036196 25 6 C25.33 6.99 25.66 7.98 26 9 C31.445 9.495 31.445 9.495 37 10 C37 10.33 37 10.66 37 11 C34.62492145 11.02719556 32.25016036 11.04693247 29.875 11.0625 C28.87726563 11.07506836 28.87726563 11.07506836 27.859375 11.08789062 C23.77287159 11.1079225 20.01663591 10.6828281 16 10 C12.71158321 9.74223217 9.41982529 9.58884363 6.125 9.4375 C5.24585937 9.39431641 4.36671875 9.35113281 3.4609375 9.30664062 C1.30744203 9.20130661 -0.84626064 9.10022351 -3 9 C-3.75 6.75 -3.75 6.75 -4 4 C-2.0625 1.6875 -2.0625 1.6875 0 0 Z " fill="#F9F7F6" transform="translate(118,64)"/>
<path d="M0 0 C9.72291022 -0.45975232 9.72291022 -0.45975232 14.125 1.125 C16 3 16 3 17.0625 5.75 C16.97457599 10.32204844 15.6535456 12.27069268 13 16 C10.85546875 17.203125 10.85546875 17.203125 9 18 C8.90203125 17.32453125 8.8040625 16.6490625 8.703125 15.953125 C7.63079297 9.02434999 7.63079297 9.02434999 3 4 C2.01 3.34 1.02 2.68 0 2 C0 1.34 0 0.68 0 0 Z " fill="#EFEEED" transform="translate(154,46)"/>
<path d="M0 0 C1.32 0.33 2.64 0.66 4 1 C3.01 1 2.02 1 1 1 C0.62875 2.794375 0.62875 2.794375 0.25 4.625 C-1.49095504 11.3861062 -4.73639672 15.21181802 -10.51171875 18.921875 C-18.46467321 22.3677391 -26.62535672 22.29478878 -35.13671875 22.265625 C-36.99403374 22.26849518 -36.99403374 22.26849518 -38.88887024 22.27142334 C-41.49337977 22.27277856 -44.0978962 22.2691287 -46.70239258 22.26074219 C-49.364801 22.25356544 -52.02640173 22.25163857 -54.6887207 22.26074219 C-58.5464691 22.27310448 -62.40395953 22.27160039 -66.26171875 22.265625 C-67.44932297 22.26967346 -68.63692719 22.27372192 -69.86051941 22.27789307 C-71.52804008 22.26843658 -71.52804008 22.26843658 -73.22924805 22.25878906 C-74.20137741 22.25719788 -75.17350677 22.25560669 -76.1750946 22.25396729 C-79.35253516 21.96830605 -82.0191799 21.11111895 -85 20 C-81.76118418 18.92039473 -81.11559807 19.13187727 -78 20 C-75.21647939 20.09567844 -72.45903496 20.14004383 -69.67578125 20.1328125 C-68.85611374 20.13376923 -68.03644623 20.13472595 -67.19194031 20.13571167 C-65.45112024 20.13639205 -63.71029762 20.13454764 -61.96948242 20.13037109 C-59.36696281 20.1251101 -56.76462298 20.13027382 -54.16210938 20.13671875 C-29.58616561 21.34668325 -29.58616561 21.34668325 -7.23046875 13.71875 C-3.75285309 9.93644898 -1.87905845 4.72388997 0 0 Z " fill="#0D0708" transform="translate(155,100)"/>
<path d="M0 0 C0.66 0.66 1.32 1.32 2 2 C1.38511719 2.04898438 0.77023438 2.09796875 0.13671875 2.1484375 C-0.67152344 2.22320312 -1.47976562 2.29796875 -2.3125 2.375 C-3.51326172 2.47941406 -3.51326172 2.47941406 -4.73828125 2.5859375 C-7.27224441 2.89564426 -7.27224441 2.89564426 -10 5 C-9.01 4.67 -8.02 4.34 -7 4 C0.02827267 3.20520341 4.84741234 3.72959608 10.63671875 7.90625 C11.08660156 8.2671875 11.53648438 8.628125 12 9 C9 9 9 9 7.234375 8.0390625 C4.23182426 6.64277142 1.54409437 6.57264566 -1.75 6.375 C-2.92046875 6.30023438 -4.0909375 6.22546875 -5.296875 6.1484375 C-6.18890625 6.09945312 -7.0809375 6.05046875 -8 6 C-7.814375 6.804375 -7.62875 7.60875 -7.4375 8.4375 C-7.293125 9.283125 -7.14875 10.12875 -7 11 C-7.33 11.33 -7.66 11.66 -8 12 C-7.40832031 12.30292969 -6.81664062 12.60585937 -6.20703125 12.91796875 C-2.47710173 14.89550072 0.56544544 16.54371771 3.5 19.625 C6.90597849 22.86067957 10.52985285 23.80211743 15 25 C15 25.33 15 25.66 15 26 C7.69477958 26.50050344 3.77145197 23.07571608 -2 19 C-2.5465625 18.62037109 -3.093125 18.24074219 -3.65625 17.84960938 C-13.68739593 10.84870545 -13.68739593 10.84870545 -14.8359375 7.73046875 C-14.89007813 7.15941406 -14.94421875 6.58835937 -15 6 C-10.76325167 2.27679693 -5.77650185 -1.92550062 0 0 Z " fill="#C06E30" transform="translate(24,55)"/>
<path d="M0 0 C0 0.66 0 1.32 0 2 C-0.89203125 2.31453125 -1.7840625 2.6290625 -2.703125 2.953125 C-3.87359375 3.38109375 -5.0440625 3.8090625 -6.25 4.25 C-7.41015625 4.66765625 -8.5703125 5.0853125 -9.765625 5.515625 C-12.98125189 6.9913958 -14.81267108 8.24418212 -17 11 C-17.16210219 13.60648505 -17.16210219 13.60648505 -16 16 C-10.72768864 20.71420633 -3.23371173 21.85682027 3.625 22.5625 C4.73875 22.706875 5.8525 22.85125 7 23 C7.495 23.99 7.495 23.99 8 25 C-1.52969515 25.74742707 -11.50572097 23.0370581 -19 17 C-20 16 -20 16 -20.5 13.3125 C-19.84990316 9.00560847 -18.22720879 7.83955395 -14.875 5.2578125 C-11.064082 2.70132168 -8.60440533 2 -4 2 C-4 1.34 -4 0.68 -4 0 C-16.15502556 0.45983408 -16.15502556 0.45983408 -28 3 C-21.71523586 -5.13322418 -8.49936305 -2.25042237 0 0 Z " fill="#181612" transform="translate(36,12)"/>
<path d="M0 0 C0.66 1.32 1.32 2.64 2 4 C1.071875 3.7525 1.071875 3.7525 0.125 3.5 C-10.83366513 1.74661358 -23.02334634 4.01167317 -33 9 C-34.70702735 9.06996014 -36.41668003 9.08440154 -38.125 9.0625 C-39.03507812 9.05347656 -39.94515625 9.04445313 -40.8828125 9.03515625 C-41.58148438 9.02355469 -42.28015625 9.01195312 -43 9 C-35.05994603 1.57220758 -24.30414522 0.95625747 -13.9375 0.4375 C-12.75317383 0.37272461 -12.75317383 0.37272461 -11.54492188 0.30664062 C-7.69223812 0.10318792 -3.85958943 -0.05436041 0 0 Z " fill="#CA7026" transform="translate(167,42)"/>
<path d="M0 0 C0 0.99 0 1.98 0 3 C0.66 3.33 1.32 3.66 2 4 C1.01 4 0.02 4 -1 4 C-1 4.66 -1 5.32 -1 6 C-0.34 6.33 0.32 6.66 1 7 C0.34 7 -0.32 7 -1 7 C-0.67 8.98 -0.34 10.96 0 13 C-1.43655854 13.08131463 -2.8744483 13.13933559 -4.3125 13.1875 C-5.51326172 13.23970703 -5.51326172 13.23970703 -6.73828125 13.29296875 C-9 13 -9 13 -10.78125 11.703125 C-12 10 -12 10 -12.1875 6.5625 C-10.88940035 2.66820106 -10.54854815 2.30949967 -7.125 0.5 C-3.98214322 -0.93805993 -3.41599837 -1.13866612 0 0 Z " fill="#E7D1B2" transform="translate(113,94)"/>
<path d="M0 0 C4.3422738 0.87293133 8.09127584 3.429558 11.2734375 6.45703125 C11.2734375 7.44703125 11.2734375 8.43703125 11.2734375 9.45703125 C5.0034375 9.12703125 -1.2665625 8.79703125 -7.7265625 8.45703125 C-8.0565625 6.47703125 -8.3865625 4.49703125 -8.7265625 2.45703125 C-5.6046479 0.37575485 -3.72091964 -0.07607828 0 0 Z " fill="#100C0A" transform="translate(125.7265625,75.54296875)"/>
<path d="M0 0 C-0.9178125 0.09796875 -1.835625 0.1959375 -2.78125 0.296875 C-11.60182611 1.37165108 -18.23197253 2.4032465 -24.75 8.625 C-29.76283319 15.31999198 -31.73992602 24.08974108 -34 32 C-37.3 32 -40.6 32 -44 32 C-44 31.67 -44 31.34 -44 31 C-41.03 31 -38.06 31 -35 31 C-34.90203125 30.17757812 -34.8040625 29.35515625 -34.703125 28.5078125 C-33.31773851 18.16518575 -31.82439895 9.15476286 -23.27734375 2.40625 C-16.29215505 -1.90707407 -7.46544177 -4.05590018 0 0 Z " fill="#140501" transform="translate(88,5)"/>
<path d="M0 0 C3.72771702 0.06961781 7.3434751 0.24160965 11 1 C13 3.4375 13 3.4375 14 6 C14.99 6.66 15.98 7.32 17 8 C17 9.32 17 10.64 17 12 C15.26982492 11.54548816 13.54090123 11.08621143 11.8125 10.625 C10.84957031 10.36976562 9.88664062 10.11453125 8.89453125 9.8515625 C6.17789793 9.05233704 3.60862825 8.0968638 1 7 C0.67 4.69 0.34 2.38 0 0 Z " fill="#EEEBE9" transform="translate(99,32)"/>
<path d="M0 0 C0.33 0 0.66 0 1 0 C1 1.65 1 3.3 1 5 C2.32 4.67 3.64 4.34 5 4 C4.67 5.65 4.34 7.3 4 9 C-7.33183857 13.5838565 -7.33183857 13.5838565 -11.421875 12.15234375 C-13.3125 10.75 -13.3125 10.75 -16 8 C-14.64453125 6.46484375 -14.64453125 6.46484375 -13 5 C-11.8553125 5.2784375 -11.8553125 5.2784375 -10.6875 5.5625 C-7.79130452 6.32251456 -7.79130452 6.32251456 -4.8125 4.1875 C-2.04780505 2.13049488 -2.04780505 2.13049488 0 0 Z " fill="#EFEEED" transform="translate(111,1)"/>
<path d="M0 0 C1.670625 0.7425 1.670625 0.7425 3.375 1.5 C8.30521096 3.15648808 12.97672694 3.30410665 18.125 3.3125 C18.8886084 3.31765625 19.6522168 3.3228125 20.43896484 3.328125 C25.30818016 3.26911698 29.37892144 2.5383166 34 1 C32.52662895 4.88434186 30.72606795 6.23712914 27 8 C24.30408429 8.20952713 21.86549491 8.28744431 19.1875 8.1875 C18.14819336 8.16719727 18.14819336 8.16719727 17.08789062 8.14648438 C15.39158735 8.11138845 13.69568864 8.05758943 12 8 C11.67 7.34 11.34 6.68 11 6 C8.44445783 5.15258932 5.86234081 4.52828074 3.25 3.87890625 C2.5075 3.58886719 1.765 3.29882812 1 3 C0.67 2.01 0.34 1.02 0 0 Z " fill="#C46521" transform="translate(83,61)"/>
<path d="M0 0 C-2.37536671 1.58357781 -4.76505664 3.11593693 -7.1875 4.625 C-8.26064453 5.29402344 -8.26064453 5.29402344 -9.35546875 5.9765625 C-10.16951172 6.48316406 -10.16951172 6.48316406 -11 7 C-10.6247098 9.57307036 -10.24026701 10.76770881 -8.34521484 12.59985352 C-7.64090332 13.10444092 -6.9365918 13.60902832 -6.2109375 14.12890625 C-5.43363281 14.68900391 -4.65632813 15.24910156 -3.85546875 15.82617188 C-3.03691406 16.39916016 -2.21835937 16.97214844 -1.375 17.5625 C-0.18197266 18.4277832 -0.18197266 18.4277832 1.03515625 19.31054688 C7.40279527 23.84317662 13.10676066 27.03740984 21 28 C21 28.33 21 28.66 21 29 C18.03 29.33 15.06 29.66 12 30 C12 29.34 12 28.68 12 28 C10.76636719 27.68675781 10.76636719 27.68675781 9.5078125 27.3671875 C5.0212019 25.61850853 1.66172331 23.05461711 -2.125 20.125 C-2.82753906 19.59519531 -3.53007812 19.06539062 -4.25390625 18.51953125 C-11.26107488 13.18136686 -11.26107488 13.18136686 -14 10 C-14.25 7.5625 -14.25 7.5625 -13 5 C-9.11856932 1.71156568 -5.24939876 -0.82021856 0 0 Z " fill="#280800" transform="translate(21,54)"/>
<path d="M0 0 C1.79398884 0.25499841 3.58520875 0.52953814 5.375 0.8125 C6.87160156 1.03873047 6.87160156 1.03873047 8.3984375 1.26953125 C11 2 11 2 13 5 C11.76125579 6.178611 10.5085199 7.34252915 9.25 8.5 C8.55390625 9.1496875 7.8578125 9.799375 7.140625 10.46875 C5 12 5 12 1 12 C0.87625 11.360625 0.7525 10.72125 0.625 10.0625 C0.41875 9.381875 0.2125 8.70125 0 8 C-0.66 7.67 -1.32 7.34 -2 7 C-0.68 6.34 0.64 5.68 2 5 C1.01 5 0.02 5 -1 5 C-0.67 3.35 -0.34 1.7 0 0 Z " fill="#C9671C" transform="translate(172,54)"/>
<path d="M0 0 C3.3717953 1.60468871 5.96570038 3.45080871 8.65234375 6.02734375 C12.74352668 9.0331108 15.80752336 8.76807579 20.71484375 8.27734375 C20.05484375 9.26734375 19.39484375 10.25734375 18.71484375 11.27734375 C12.26334114 11.24747568 8.45928358 9.94817606 3.5390625 5.75 C-0.23617188 2.70232685 -3.0012949 2.01731317 -7.84765625 2.08984375 C-8.79769531 2.09628906 -9.74773438 2.10273437 -10.7265625 2.109375 C-14.14732709 2.33394428 -15.84031284 2.83250034 -18.28515625 5.27734375 C-18.03515625 3.40234375 -18.03515625 3.40234375 -17.28515625 1.27734375 C-12.26472316 -1.96311761 -5.56698244 -1.76049872 0 0 Z " fill="#310700" transform="translate(30.28515625,57.72265625)"/>
<path d="M0 0 C2.6796875 0.390625 2.6796875 0.390625 5.875 1.25 C6.92429687 1.52328125 7.97359375 1.7965625 9.0546875 2.078125 C11.55580822 2.86096915 13.71226102 3.74008578 16 5 C16.33 4.34 16.66 3.68 17 3 C19.62386487 6.06117568 20 6.73173127 20 11 C20.85464844 11.04898438 21.70929688 11.09796875 22.58984375 11.1484375 C23.69457031 11.22320312 24.79929687 11.29796875 25.9375 11.375 C27.59072266 11.47941406 27.59072266 11.47941406 29.27734375 11.5859375 C30.62505859 11.79089844 30.62505859 11.79089844 32 12 C32.495 12.99 32.495 12.99 33 14 C31.39592672 14.02708567 29.7917215 14.04643483 28.1875 14.0625 C26.84751953 14.07990234 26.84751953 14.07990234 25.48046875 14.09765625 C23 14 23 14 20 13 C19.87625 14.134375 19.7525 15.26875 19.625 16.4375 C19.315625 18.2009375 19.315625 18.2009375 19 20 C18.34 20.33 17.68 20.66 17 21 C17.16371094 20.43796875 17.32742187 19.8759375 17.49609375 19.296875 C18.02864997 16.86940944 18.09898681 14.73110319 18.0625 12.25 C18.05347656 11.45078125 18.04445313 10.6515625 18.03515625 9.828125 C18.02355469 9.22484375 18.01195313 8.6215625 18 8 C15.60539412 7.18372554 13.20943474 6.37188355 10.8125 5.5625 C10.13896484 5.33240234 9.46542969 5.10230469 8.77148438 4.86523438 C5.20485509 3.66475915 1.7128839 2.62722505 -2 2 C-1.34 1.34 -0.68 0.68 0 0 Z " fill="#474645" transform="translate(100,39)"/>
<path d="M0 0 C2.1875 0.3125 2.1875 0.3125 4 1 C4 1.66 4 2.32 4 3 C4.99 3.33 5.98 3.66 7 4 C5.35 4.66 3.7 5.32 2 6 C1.505 4.02 1.505 4.02 1 2 C0.113125 2.804375 -0.77375 3.60875 -1.6875 4.4375 C-4.38799385 6.69110361 -6.39865484 7.79992527 -10 8 C-10.66 7.67 -11.32 7.34 -12 7 C-12.99 7.495 -12.99 7.495 -14 8 C-13.01 9.485 -13.01 9.485 -12 11 C-18 9 -18 9 -20.875 7.9375 C-24.60745756 6.81776273 -28.12628957 6.40072867 -32 6 C-32 5.67 -32 5.34 -32 5 C-29.91673869 4.97290556 -27.83337559 4.95356127 -25.75 4.9375 C-24.58984375 4.92589844 -23.4296875 4.91429687 -22.234375 4.90234375 C-19.56218728 4.98302575 -17.55022905 5.36244274 -15 6 C-12.29534258 5.13545562 -12.29534258 5.13545562 -10 4 C-10 4.66 -10 5.32 -10 6 C-5.23872375 4.26074901 -5.23872375 4.26074901 -1.3125 1.25 C-0.6628125 0.63125 -0.6628125 0.63125 0 0 Z " fill="#1E1612" transform="translate(110,0)"/>
<path d="M0 0 C4.95 0.33 9.9 0.66 15 1 C15.33 1.99 15.66 2.98 16 4 C21.445 4.495 21.445 4.495 27 5 C27 5.33 27 5.66 27 6 C17.05603122 6.25068829 7.8223548 5.6950751 -2 4 C-1.34 2.68 -0.68 1.36 0 0 Z " fill="#F6F9F8" transform="translate(128,69)"/>
<path d="M0 0 C0.66 0 1.32 0 2 0 C0.80539021 3.34490741 -1.01849887 5.23725053 -4.0234375 7.1171875 C-9.59437811 9.60539417 -15.96202159 10.13102304 -22 10 C-22 9.34 -22 8.68 -22 8 C-22.66 7.67 -23.32 7.34 -24 7 C-23.17757812 6.90203125 -22.35515625 6.8040625 -21.5078125 6.703125 C-9.95156721 5.44956906 -9.95156721 5.44956906 0 0 Z " fill="#CA6F2D" transform="translate(167,63)"/>
<path d="M0 0 C2.79192205 -0.05380578 5.5828141 -0.09357669 8.375 -0.125 C9.1690625 -0.14175781 9.963125 -0.15851562 10.78125 -0.17578125 C12.85492015 -0.19335473 14.92883241 -0.10335168 17 0 C17.66 0.66 18.32 1.32 19 2 C16.69 2.33 14.38 2.66 12 3 C12 4.32 12 5.64 12 7 C10.58208592 6.54554036 9.16571954 6.08625056 7.75 5.625 C6.96109375 5.36976562 6.1721875 5.11453125 5.359375 4.8515625 C3.13372042 4.04826333 1.09068328 3.10288338 -1 2 C-0.67 1.34 -0.34 0.68 0 0 Z " fill="#CD7027" transform="translate(23,53)"/>
<path d="M0 0 C1.35102132 3.68066705 0.62773517 5.83841646 -0.75 9.4375 C-1.09546875 10.36433594 -1.4409375 11.29117188 -1.796875 12.24609375 C-2.99730587 14.99383325 -4.40037318 17.46725753 -6 20 C-5.01 20.99 -4.02 21.98 -3 23 C-3.62003906 22.79503906 -4.24007812 22.59007813 -4.87890625 22.37890625 C-12.95731129 19.92128376 -20.60590627 19.32851379 -29 19 C-29 18.67 -29 18.34 -29 18 C-26.62543835 17.8036304 -24.25079981 17.61768706 -21.875 17.4375 C-21.20984375 17.38142578 -20.5446875 17.32535156 -19.859375 17.26757812 C-15.7271959 16.96374143 -12.05304259 17.14772469 -8 18 C-3.76240726 12.55166648 -1.99325843 6.55230698 0 0 Z " fill="#4F230E" transform="translate(54,34)"/>
<path d="M0 0 C0.81791016 0.19078125 1.63582031 0.3815625 2.47851562 0.578125 C4.46693044 1.04325127 6.45253756 1.52035427 8.4375 2 C8.4375 2.33 8.4375 2.66 8.4375 3 C7.756875 2.9278125 7.07625 2.855625 6.375 2.78125 C-4.58257187 1.73212078 -15.66387849 1.22351059 -26.5625 3 C-17.89510299 -3.81009765 -10.25849695 -2.49918938 0 0 Z " fill="#4C1D0A" transform="translate(97.5625,29)"/>
<path d="M0 0 C5.43219805 1.25868004 10.45877512 2.86243432 15.625 4.9375 C22.97301901 7.80455201 30.22186066 9.61451893 38 11 C38 11.33 38 11.66 38 12 C24.20670303 12.61303542 12.46038351 7.26979923 0 2 C0 1.34 0 0.68 0 0 Z " fill="#220801" transform="translate(46,109)"/>
<path d="M0 0 C0 0.66 0 1.32 0 2 C0.99 2.33 1.98 2.66 3 3 C2.25 7.75 2.25 7.75 0 10 C-2.1640625 10.1953125 -2.1640625 10.1953125 -4.625 10.125 C-5.44226563 10.10695313 -6.25953125 10.08890625 -7.1015625 10.0703125 C-7.72804687 10.04710938 -8.35453125 10.02390625 -9 10 C-9 9.67 -9 9.34 -9 9 C-7.02 9 -5.04 9 -3 9 C-3.33 7.02 -3.66 5.04 -4 3 C-6.64 2.67 -9.28 2.34 -12 2 C-12 1.67 -12 1.34 -12 1 C-7.93631321 0.22596442 -4.13574827 -0.0984702 0 0 Z " fill="#EFDEC5" transform="translate(166,85)"/>
<path d="M0 0 C3.33331439 -0.02937438 6.66659483 -0.04692334 10 -0.0625 C10.93457031 -0.07087891 11.86914062 -0.07925781 12.83203125 -0.08789062 C18.32274401 -0.10708892 23.56866481 0.1865807 29 1 C29 1.33 29 1.66 29 2 C28.07767578 2.09087891 28.07767578 2.09087891 27.13671875 2.18359375 C26.32847656 2.26738281 25.52023438 2.35117188 24.6875 2.4375 C23.88699219 2.51871094 23.08648437 2.59992188 22.26171875 2.68359375 C19.83912821 2.95265693 19.83912821 2.95265693 17 4 C16.443125 3.690625 15.88625 3.38125 15.3125 3.0625 C11.04063092 1.09974934 6.41824557 1.52725148 2 3 C2.33 4.98 2.66 6.96 3 9 C1.5 7.875 1.5 7.875 0 6 C-0.06012319 4.0009039 -0.06500629 1.99894327 0 0 Z " fill="#F7EED3" transform="translate(115,75)"/>
<path d="M0 0 C0.33 0.99 0.66 1.98 1 3 C0.01 4.485 0.01 4.485 -1 6 C-0.443125 5.855625 0.11375 5.71125 0.6875 5.5625 C8.07297717 3.76603258 14.47019779 3.49403956 22 5 C22 5.33 22 5.66 22 6 C21.0553186 6.08302368 21.0553186 6.08302368 20.09155273 6.16772461 C17.20669312 6.42237236 14.32209868 6.67991392 11.4375 6.9375 C10.44685547 7.02451172 9.45621094 7.11152344 8.43554688 7.20117188 C3.26236469 7.66521147 -1.86752079 8.20097448 -7 9 C-6.34 8.34 -5.68 7.68 -5 7 C-4.01 7 -3.02 7 -2 7 C-2 5.02 -2 3.04 -2 1 C-1.34 0.67 -0.68 0.34 0 0 Z " fill="#0C0505" transform="translate(117,3)"/>
<path d="M0 0 C1.30130859 0.26490234 1.30130859 0.26490234 2.62890625 0.53515625 C4.41927083 1.0234375 6.20963542 1.51171875 8 2 C7.360625 2.12375 6.72125 2.2475 6.0625 2.375 C5.381875 2.58125 4.70125 2.7875 4 3 C3.67 3.66 3.34 4.32 3 5 C3 4.34 3 3.68 3 3 C-6.98878626 0.42224871 -13.79038903 2.75797794 -22.83984375 6.6875 C-26 8 -26 8 -28 8 C-28 7.34 -28 6.68 -28 6 C-25.03313346 4.78005198 -22.05018388 3.60543301 -19.0625 2.4375 C-18.23169922 2.09525391 -17.40089844 1.75300781 -16.54492188 1.40039062 C-10.61380894 -0.88435716 -6.21361302 -1.31467382 0 0 Z " fill="#4E4439" transform="translate(151,97)"/>
<path d="M0 0 C0.33 0 0.66 0 1 0 C1.66 2.64 2.32 5.28 3 8 C9.6 8.33 16.2 8.66 23 9 C23 9.33 23 9.66 23 10 C22.04738281 10.03738281 21.09476563 10.07476562 20.11328125 10.11328125 C18.23189453 10.21189453 18.23189453 10.21189453 16.3125 10.3125 C15.07113281 10.37050781 13.82976562 10.42851563 12.55078125 10.48828125 C8.87423048 11.0181252 6.99515177 11.87843416 4 14 C2.906875 14.721875 1.81375 15.44375 0.6875 16.1875 C-0.6428125 17.0846875 -0.6428125 17.0846875 -2 18 C-2.33 17.34 -2.66 16.68 -3 16 C-1.02 14.68 0.96 13.36 3 12 C2.319375 10.948125 1.63875 9.89625 0.9375 8.8125 C-0.6356595 6.09672991 -1.02512513 5.29522026 -0.75 2.0625 C-0.5025 1.381875 -0.255 0.70125 0 0 Z " fill="#614432" transform="translate(114,75)"/>
<path d="M0 0 C-0.33 0.66 -0.66 1.32 -1 2 C-1.721875 2.12375 -2.44375 2.2475 -3.1875 2.375 C-6.20244052 2.86526278 -6.20244052 2.86526278 -9.0625 5.0625 C-12 7 -12 7 -16 7 C-16 6.01 -16 5.02 -16 4 C-18.31 3.67 -20.62 3.34 -23 3 C-23 2.67 -23 2.34 -23 2 C-22.05898437 1.95101562 -21.11796875 1.90203125 -20.1484375 1.8515625 C-18.28058594 1.73941406 -18.28058594 1.73941406 -16.375 1.625 C-15.14523438 1.55539063 -13.91546875 1.48578125 -12.6484375 1.4140625 C-9.00805166 1.13027187 -9.00805166 1.13027187 -5.7265625 -0.1015625 C-3 -1 -3 -1 0 0 Z " fill="#F6E5C8" transform="translate(169,75)"/>
<path d="M0 0 C0.33 0 0.66 0 1 0 C1.33 1.98 1.66 3.96 2 6 C-8.05291857 8.40240444 -16.79074487 10.09420618 -27 8 C-27 7.67 -27 7.34 -27 7 C-23.81309767 6.66078548 -20.62539896 6.32970583 -17.4375 6 C-16.54224609 5.90460937 -15.64699219 5.80921875 -14.72460938 5.7109375 C-9.78509212 5.20432035 -4.96511986 4.89102618 0 5 C0 3.35 0 1.7 0 0 Z " fill="#4F1B07" transform="translate(149,22)"/>
<path d="M0 0 C8.15475474 -0.433422 15.17683695 0.70629774 23 3 C23 3.66 23 4.32 23 5 C21.700625 4.855625 20.40125 4.71125 19.0625 4.5625 C17.83660156 4.42714844 17.83660156 4.42714844 16.5859375 4.2890625 C14.90312533 4.10095359 13.22079405 3.90847422 11.5390625 3.7109375 C10.76304687 3.62070313 9.98703125 3.53046875 9.1875 3.4375 C8.47980469 3.35371094 7.77210938 3.26992187 7.04296875 3.18359375 C5.03580496 3.00321765 3.01525234 3 1 3 C0.67 2.01 0.34 1.02 0 0 Z " fill="#F9EFD2" transform="translate(137,94)"/>
<path d="M0 0 C0.66 0.33 1.32 0.66 2 1 C1.88178782 4.90100185 0.48622663 6.85196497 -2.125 9.5625 C-6.75592396 13.91822561 -11.52809086 17.21552616 -18 18 C-17.505 16.515 -17.505 16.515 -17 15 C-16.27039063 14.91105469 -15.54078125 14.82210937 -14.7890625 14.73046875 C-9.41600081 13.32323831 -4.80838555 8.70407495 -1.75390625 4.13671875 C-0.84590626 2.38721957 -0.84590626 2.38721957 0 0 Z " fill="#161412" transform="translate(188,34)"/>
<path d="M0 0 C7.61406844 -0.76140684 7.61406844 -0.76140684 10.8984375 1.04296875 C13.03929768 2.82353782 14.74757112 4.49514224 16 7 C16.07194869 9.88370333 16.09291708 12.74239664 16.0625 15.625 C16.05798828 16.42679688 16.05347656 17.22859375 16.04882812 18.0546875 C16.03703168 20.03649006 16.01909605 22.01825433 16 24 C15.34 23.67 14.68 23.34 14 23 C14.03480469 22.13117187 14.06960937 21.26234375 14.10546875 20.3671875 C14.56026311 11.66247558 14.56026311 11.66247558 11 4 C7.53120603 2.03122504 3.92466789 1.54762808 0 1 C0 0.67 0 0.34 0 0 Z " fill="#080606" transform="translate(175,12)"/>
<path d="M0 0 C1.32 0.33 2.64 0.66 4 1 C3.01 1 2.02 1 1 1 C0.7525 2.19625 0.505 3.3925 0.25 4.625 C-1.1732626 10.21921272 -3.511465 13.81524765 -8.0625 17.4375 C-9.031875 17.953125 -10.00125 18.46875 -11 19 C-11.99 18.67 -12.98 18.34 -14 18 C-13.01 17.34 -12.02 16.68 -11 16 C-4.83048102 11.84228069 -2.70130086 6.8249681 0 0 Z " fill="#151514" transform="translate(155,100)"/>
<path d="M0 0 C6.15234375 -0.09765625 6.15234375 -0.09765625 8 0 C9 1 9 1 9 4.5 C8.9896875 5.2115625 8.979375 5.923125 8.96875 6.65625 C9.01957581 10.46818586 9.51039384 14.22303823 10 18 C8.35471386 14.87247409 7.08297501 11.6946943 5.875 8.375 C5.52179688 7.41335937 5.16859375 6.45171875 4.8046875 5.4609375 C4 3 4 3 4 1 C2.68 0.67 1.36 0.34 0 0 Z " fill="#B8601E" transform="translate(117,10)"/>
<path d="M0 0 C4.29 0.99 8.58 1.98 13 3 C13 3.33 13 3.66 13 4 C12.15695313 4.06058594 11.31390625 4.12117188 10.4453125 4.18359375 C9.34960938 4.26738281 8.25390625 4.35117187 7.125 4.4375 C5.48917969 4.55931641 5.48917969 4.55931641 3.8203125 4.68359375 C1.05271029 4.83001703 1.05271029 4.83001703 -1 6 C-2.99960012 6.039992 -5.00047242 6.04346799 -7 6 C-5.75 4.5 -5.75 4.5 -4 3 C-2.68 3 -1.36 3 0 3 C0 2.01 0 1.02 0 0 Z " fill="#150E0C" transform="translate(24,48)"/>
<path d="M0 0 C4.64847601 -0.26246967 7.7144724 0.45493752 11.9375 2.375 C16.26863507 4.27897345 20.41505862 5.85376466 25 7 C25 7.33 25 7.66 25 8 C15.98830962 7.67815391 8.26743022 4.31711617 0 1 C0 0.67 0 0.34 0 0 Z " fill="#BE6A29" transform="translate(54,111)"/>
<path d="M0 0 C0.042721 1.66611905 0.04063832 3.33382885 0 5 C-1 6 -1 6 -3.28515625 6.09765625 C-4.65994141 6.08025391 -4.65994141 6.08025391 -6.0625 6.0625 C-6.98160156 6.05347656 -7.90070313 6.04445313 -8.84765625 6.03515625 C-9.55792969 6.02355469 -10.26820312 6.01195312 -11 6 C-3.8 0 -3.8 0 0 0 Z " fill="#F6F2EB" transform="translate(135,45)"/>
<path d="M0 0 C1.65 0 3.3 0 5 0 C5.33 0.99 5.66 1.98 6 3 C9.63 3.33 13.26 3.66 17 4 C17 4.33 17 4.66 17 5 C14.56183415 5.0809723 12.12635616 5.14046972 9.6875 5.1875 C8.65206055 5.22520508 8.65206055 5.22520508 7.59570312 5.26367188 C2.44325817 5.33834499 2.44325817 5.33834499 0.01953125 3.48828125 C-0.48513672 2.75158203 -0.48513672 2.75158203 -1 2 C-0.67 1.34 -0.34 0.68 0 0 Z " fill="#ECEAE7" transform="translate(138,70)"/>
<path d="M0 0 C1.79398884 0.25499841 3.58520875 0.52953814 5.375 0.8125 C6.87160156 1.03873047 6.87160156 1.03873047 8.3984375 1.26953125 C11 2 11 2 13 5 C11.80375 4.814375 10.6075 4.62875 9.375 4.4375 C5.71716293 3.9688803 2.62137834 4.18518987 -1 5 C-0.67 3.35 -0.34 1.7 0 0 Z " fill="#C47132" transform="translate(172,54)"/>
<path d="M0 0 C2.6015625 -0.29296875 2.6015625 -0.29296875 5.625 -0.1875 C7.12933594 -0.14689453 7.12933594 -0.14689453 8.6640625 -0.10546875 C9.43492187 -0.07066406 10.20578125 -0.03585938 11 0 C7.66688525 1.7824918 4.75519057 2.48792856 1 3 C1 3.66 1 4.32 1 5 C-2.465 6.485 -2.465 6.485 -6 8 C-6 7.01 -6 6.02 -6 5 C-5.38125 4.731875 -4.7625 4.46375 -4.125 4.1875 C-1.7004767 3.04443152 -1.7004767 3.04443152 0 0 Z " fill="#3F1A0C" transform="translate(169,58)"/>
<path d="M0 0 C0.47308594 0.433125 0.94617187 0.86625 1.43359375 1.3125 C6.12852098 5.26612293 9.15291958 6.64793476 15.3125 6.2109375 C16.1478125 6.10652344 16.1478125 6.10652344 17 6 C16.01 7.485 16.01 7.485 15 9 C10.23369617 8.88349035 6.26657973 8.68275432 2.4375 5.625 C0 3 0 3 0 0 Z " fill="#591400" transform="translate(34,60)"/>
<path d="M0 0 C2.56314499 -0.08132187 5.12368418 -0.14064175 7.6875 -0.1875 C8.40873047 -0.21263672 9.12996094 -0.23777344 9.87304688 -0.26367188 C14.47589338 -0.32672457 17.30307233 0.22183542 21 3 C20.67 3.99 20.34 4.98 20 6 C19.33613281 5.52949219 18.67226562 5.05898437 17.98828125 4.57421875 C14.43471528 2.70220949 11.11878222 2.22255719 7.1875 1.8125 C6.14819336 1.6897168 6.14819336 1.6897168 5.08789062 1.56445312 C3.39313016 1.36575707 1.69669806 1.18140797 0 1 C0 0.67 0 0.34 0 0 Z " fill="#341404" transform="translate(126,9)"/>
<path d="M0 0 C-2.37536671 1.58357781 -4.76505664 3.11593693 -7.1875 4.625 C-8.26064453 5.29402344 -8.26064453 5.29402344 -9.35546875 5.9765625 C-10.16951172 6.48316406 -10.16951172 6.48316406 -11 7 C-10.67 8.65 -10.34 10.3 -10 12 C-11.32 11.34 -12.64 10.68 -14 10 C-14 7.8125 -14 7.8125 -13 5 C-9.16503551 1.68472696 -5.21516719 -0.81486987 0 0 Z " fill="#321103" transform="translate(21,54)"/>
<path d="M0 0 C2.97 0 5.94 0 9 0 C7.02 0.99 7.02 0.99 5 2 C6.98 3.65 8.96 5.3 11 7 C10.67 7.99 10.34 8.98 10 10 C9.484375 9.21625 8.96875 8.4325 8.4375 7.625 C5.4837677 4.44405752 3.18393452 3.88506307 -1 3 C-0.67 2.01 -0.34 1.02 0 0 Z " fill="#181816" transform="translate(172,13)"/>
<path d="M0 0 C0.33 0 0.66 0 1 0 C1 2.31 1 4.62 1 7 C-5 6.33333333 -11 5.66666667 -17 5 C-17 4.67 -17 4.34 -17 4 C-14.72923158 3.97300275 -12.45837179 3.95360547 -10.1875 3.9375 C-8.92292969 3.92589844 -7.65835938 3.91429687 -6.35546875 3.90234375 C-3 4 -3 4 0 5 C0 3.35 0 1.7 0 0 Z " fill="#C36927" transform="translate(96,22)"/>
<path d="M0 0 C1.43655854 -0.08131463 2.8744483 -0.13933559 4.3125 -0.1875 C5.51326172 -0.23970703 5.51326172 -0.23970703 6.73828125 -0.29296875 C9.47851584 0.06198392 10.29171079 0.89366282 12 3 C9.375 4.25 9.375 4.25 6 5 C2.625 3.1875 2.625 3.1875 0 1 C0 0.67 0 0.34 0 0 Z " fill="#E6E5E2" transform="translate(175,14)"/>
<path d="M0 0 C3.63 0.66 7.26 1.32 11 2 C10.01 2.66 9.02 3.32 8 4 C8.33 5.32 8.66 6.64 9 8 C8.01 8.495 8.01 8.495 7 9 C6.67 7.35 6.34 5.7 6 4 C4.02 3.34 2.04 2.68 0 2 C0 1.34 0 0.68 0 0 Z " fill="#B0642D" transform="translate(99,106)"/>
<path d="M0 0 C0.66 1.32 1.32 2.64 2 4 C-3.61 3.34 -9.22 2.68 -15 2 C-15 1.67 -15 1.34 -15 1 C-13.43784452 0.83013455 -11.8752548 0.66426036 -10.3125 0.5 C-9.44238281 0.4071875 -8.57226562 0.314375 -7.67578125 0.21875 C-5.10276661 0.00840136 -2.58015636 -0.03719144 0 0 Z " fill="#C87C40" transform="translate(167,42)"/>
<path d="M0 0 C-1.44626119 3.81287042 -3.30194812 5.32707177 -7 7 C-9.3125 6.6875 -9.3125 6.6875 -11 6 C-9.35 5.67 -7.7 5.34 -6 5 C-6.33 4.01 -6.66 3.02 -7 2 C-2.25 0 -2.25 0 0 0 Z " fill="#D7A987" transform="translate(117,62)"/>
<path d="M0 0 C2 1.4375 2 1.4375 4 4 C4.35442445 7.02824418 4.23347235 9.96485939 4 13 C4.66 13.33 5.32 13.66 6 14 C5.01 14 4.02 14 3 14 C2.49528803 12.23050388 1.99639315 10.45934777 1.5 8.6875 C1.2215625 7.70136719 0.943125 6.71523438 0.65625 5.69921875 C0 3 0 3 0 0 Z " fill="#120400" transform="translate(147,13)"/>
<path d="M0 0 C0.90105469 0.19464844 1.80210937 0.38929687 2.73046875 0.58984375 C3.41753906 0.74582031 4.10460937 0.90179688 4.8125 1.0625 C4.8125 1.7225 4.8125 2.3825 4.8125 3.0625 C3.39499437 2.94740339 1.97848831 2.81996342 0.5625 2.6875 C-0.22640625 2.61789063 -1.0153125 2.54828125 -1.828125 2.4765625 C-4.273377 2.04742887 -6.03586903 1.27649362 -8.1875 0.0625 C-4.80475734 -1.06508089 -3.41971777 -0.75500262 0 0 Z " fill="#E9E1CB" transform="translate(155.1875,95.9375)"/>
<path d="M0 0 C3.63 0.33 7.26 0.66 11 1 C10.67 1.99 10.34 2.98 10 4 C6.37 3.67 2.74 3.34 -1 3 C-0.67 2.01 -0.34 1.02 0 0 Z " fill="#C86315" transform="translate(23,53)"/>
<path d="M0 0 C3.34373475 0.55728913 6.03312999 1.35173889 9 3 C8.67 3.99 8.34 4.98 8 6 C3.545 4.02 3.545 4.02 -1 2 C-0.67 1.34 -0.34 0.68 0 0 Z " fill="#080605" transform="translate(15,45)"/>
<path d="M0 0 C0.33 0 0.66 0 1 0 C1.99 3.63 2.98 7.26 4 11 C2.68 10.67 1.36 10.34 0 10 C-0.95024979 6.30458414 -0.95024979 3.69541586 0 0 Z " fill="#210A01" transform="translate(34,93)"/>
<path d="M0 0 C2.97 0.495 2.97 0.495 6 1 C6 1.99 6 2.98 6 4 C3.5 5.6875 3.5 5.6875 1 7 C1 5.68 1 4.36 1 3 C1.66 3 2.32 3 3 3 C3 2.34 3 1.68 3 1 C2.01 0.67 1.02 0.34 0 0 Z " fill="#AF591A" transform="translate(177,57)"/>
<path d="M0 0 C6.0546875 -0.1953125 6.0546875 -0.1953125 8 0 C8.66 0.66 9.32 1.32 10 2 C6.7 2.66 3.4 3.32 0 4 C0 2.66666667 0 1.33333333 0 0 Z " fill="#B06736" transform="translate(144,43)"/>
<path d="M0 0 C0.66 0.99 1.32 1.98 2 3 C-2.1795645 5.78637633 -4.14668677 4.79562512 -9 4 C-9 3.67 -9 3.34 -9 3 C-6.03 2.01 -3.06 1.02 0 0 Z " fill="#CA6E31" transform="translate(113,68)"/>
<path d="M0 0 C1.32 0 2.64 0 4 0 C4.33 0.99 4.66 1.98 5 3 C4.01 3 3.02 3 2 3 C2 4.32 2 5.64 2 7 C1.01 6.67 0.02 6.34 -1 6 C-0.67 4.02 -0.34 2.04 0 0 Z " fill="#D36008" transform="translate(16,61)"/>
<path d="M0 0 C0.66 0.33 1.32 0.66 2 1 C0.75 4.4375 0.75 4.4375 -1 8 C-3.1875 8.9375 -3.1875 8.9375 -5 9 C-4.360625 8.071875 -3.72125 7.14375 -3.0625 6.1875 C-0.91377907 3.15780057 -0.91377907 3.15780057 0 0 Z " fill="#FFF4DF" transform="translate(108,111)"/>
<path d="M0 0 C-0.99 1.485 -0.99 1.485 -2 3 C-5.3 2.67 -8.6 2.34 -12 2 C-12 1.67 -12 1.34 -12 1 C-7.93631321 0.22596442 -4.13574827 -0.0984702 0 0 Z " fill="#F8EBCB" transform="translate(166,85)"/>
<path d="M0 0 C1.98 0.99 1.98 0.99 4 2 C3.01 2.495 3.01 2.495 2 3 C2.33 4.98 2.66 6.96 3 9 C1.5 7.875 1.5 7.875 0 6 C-0.1875 2.8125 -0.1875 2.8125 0 0 Z " fill="#E8DECA" transform="translate(115,75)"/>
<path d="M0 0 C-0.33 0.66 -0.66 1.32 -1 2 C-2.65391846 2.39171753 -4.32345271 2.72057545 -6 3 C-6.99 3.33 -7.98 3.66 -9 4 C-9 3.01 -9 2.02 -9 1 C-3.375 -1.125 -3.375 -1.125 0 0 Z " fill="#E1D7CC" transform="translate(169,75)"/>
<path d="M0 0 C0.66 0.33 1.32 0.66 2 1 C0.9375 2.5 0.9375 2.5 -1 4 C-4.6875 4.1875 -4.6875 4.1875 -8 4 C-8.33 3.34 -8.66 2.68 -9 2 C-6 1 -6 1 -3 2 C-2.01 2 -1.02 2 0 2 C0 1.34 0 0.68 0 0 Z " fill="#D0702A" transform="translate(50,63)"/>
<path d="M0 0 C0.99 0.33 1.98 0.66 3 1 C3.33 1.99 3.66 2.98 4 4 C3.67 4.66 3.34 5.32 3 6 C1.68 5.34 0.36 4.68 -1 4 C-1 1 -1 1 0 0 Z " fill="#BA621E" transform="translate(11,61)"/>
<path d="M0 0 C1.17539996 0.92652701 2.34010577 1.86663387 3.5 2.8125 C4.1496875 3.33457031 4.799375 3.85664062 5.46875 4.39453125 C7 6 7 6 7 9 C6.34 9 5.68 9 5 9 C2.82796 6.03812728 1.16438003 3.49314009 0 0 Z " fill="#CB7834" transform="translate(72,51)"/>
<path d="M0 0 C1.65 0 3.3 0 5 0 C5 1.32 5 2.64 5 4 C3.0625 3.6875 3.0625 3.6875 1 3 C0.67 2.01 0.34 1.02 0 0 Z " fill="#EBEBEA" transform="translate(93,51)"/>
<path d="M0 0 C2.64 0 5.28 0 8 0 C8 0.66 8 1.32 8 2 C5.69 2.33 3.38 2.66 1 3 C0.67 2.01 0.34 1.02 0 0 Z " fill="#D6D7CE" transform="translate(24,12)"/>
<path d="M0 0 C0.33 0.66 0.66 1.32 1 2 C-0.65 3.65 -2.3 5.3 -4 7 C-4.99 6.67 -5.98 6.34 -7 6 C-4.69 4.02 -2.38 2.04 0 0 Z " fill="#361002" transform="translate(176,66)"/>
<path d="M0 0 C1.32 0.33 2.64 0.66 4 1 C4.33 2.32 4.66 3.64 5 5 C4.01 5 3.02 5 2 5 C2 4.34 2 3.68 2 3 C1.34 3 0.68 3 0 3 C0 2.01 0 1.02 0 0 Z " fill="#CC6321" transform="translate(72,59)"/>
<path d="M0 0 C0.33 1.32 0.66 2.64 1 4 C0.01 4.33 -0.98 4.66 -2 5 C-3.20882096 7.00016466 -3.20882096 7.00016466 -4 9 C-3.46930939 5.17902761 -2.50298434 2.93828597 0 0 Z " fill="#040100" transform="translate(61,11)"/>
</svg>
